<?xml version="1.0" encoding="us-ascii" standalone="no"?><svg xmlns="http://www.w3.org/2000/svg" xmlns:xlink="http://www.w3.org/1999/xlink" contentStyleType="text/css" height="1101px" preserveAspectRatio="none" style="width:3333px;height:1101px;background:#FFFFFF;" version="1.1" viewBox="0 0 3333 1101" width="3333px" zoomAndPan="magnify"><defs/><g><text fill="#000000" font-family="sans-serif" font-size="14" font-weight="bold" lengthAdjust="spacing" textLength="246" x="1536.75" y="24.5332">Diagrama de Clases UML - ShareUS</text><!--class RolUsuario--><g id="elem_RolUsuario"><rect codeLine="16" fill="#FFFFFF" height="93.9219" id="RolUsuario" rx="2.5" ry="2.5" style="stroke:#000000;stroke-width:0.5;" width="107" x="1095" y="514.6094"/><ellipse cx="1110" cy="535.9609" fill="#EB937F" rx="11" ry="11" style="stroke:#181818;stroke-width:1.0;"/><path d="M1108.8594,536.7578 L1108.8594,539.2578 L1113.1875,539.2578 L1113.1875,538.3359 Q1113.1875,537.7266 1113.4219,537.4609 Q1113.6719,537.1953 1114.0469,537.1953 Q1114.4219,537.1953 1114.6563,537.4609 Q1114.8906,537.7266 1114.8906,538.3359 L1114.8906,540.9609 L1106.8906,540.9609 Q1106.2656,540.9609 1106,540.7266 Q1105.75,540.4922 1105.75,540.1016 Q1105.75,539.7266 1106.0156,539.4922 Q1106.2813,539.2578 1106.8906,539.2578 L1107.1563,539.2578 L1107.1563,532.6016 L1106.8906,532.6016 Q1106.2656,532.6016 1106,532.3672 Q1105.75,532.1328 1105.75,531.7422 Q1105.75,531.3672 1106,531.1328 Q1106.2656,530.8984 1106.8906,530.8984 L1114.5156,530.8984 L1114.5156,533.4922 Q1114.5156,534.1016 1114.2813,534.3672 Q1114.0625,534.6172 1113.6719,534.6172 Q1113.2969,534.6172 1113.0625,534.3672 Q1112.8281,534.1016 1112.8281,533.4922 L1112.8281,532.6016 L1108.8594,532.6016 L1108.8594,535.0547 L1110.3438,535.0547 Q1110.3438,534.3984 1110.4688,534.2109 Q1110.7344,533.8047 1111.2031,533.8047 Q1111.5781,533.8047 1111.8125,534.0703 Q1112.0469,534.3203 1112.0469,534.9297 L1112.0469,536.8984 Q1112.0469,537.4453 1111.9219,537.6328 Q1111.6563,538.0234 1111.2031,538.0234 Q1110.7344,538.0234 1110.4688,537.6172 Q1110.3438,537.4297 1110.3438,536.7578 L1108.8594,536.7578 Z " fill="#000000"/><text fill="#000000" font-family="sans-serif" font-size="12" font-style="italic" lengthAdjust="spacing" textLength="79" x="1122" y="532.0664">&#171;Enumerado&#187;</text><text fill="#000000" font-family="sans-serif" font-size="14" lengthAdjust="spacing" textLength="69" x="1127" y="549.2363">RolUsuario</text><line style="stroke:#000000;stroke-width:0.5;" x1="1096" x2="1201" y1="557.3125" y2="557.3125"/><text fill="#000000" font-family="sans-serif" font-size="14" lengthAdjust="spacing" textLength="66" x="1101" y="575.8457">estudiante</text><text fill="#000000" font-family="sans-serif" font-size="14" lengthAdjust="spacing" textLength="86" x="1101" y="593.4551">administrador</text><line style="stroke:#000000;stroke-width:0.5;" x1="1096" x2="1201" y1="600.5313" y2="600.5313"/></g><!--class EstadoCuenta--><g id="elem_EstadoCuenta"><rect codeLine="21" fill="#FFFFFF" height="111.5313" id="EstadoCuenta" rx="2.5" ry="2.5" style="stroke:#000000;stroke-width:0.5;" width="122" x="1237.5" y="505.6094"/><ellipse cx="1252.5" cy="526.9609" fill="#EB937F" rx="11" ry="11" style="stroke:#181818;stroke-width:1.0;"/><path d="M1251.3594,527.7578 L1251.3594,530.2578 L1255.6875,530.2578 L1255.6875,529.3359 Q1255.6875,528.7266 1255.9219,528.4609 Q1256.1719,528.1953 1256.5469,528.1953 Q1256.9219,528.1953 1257.1563,528.4609 Q1257.3906,528.7266 1257.3906,529.3359 L1257.3906,531.9609 L1249.3906,531.9609 Q1248.7656,531.9609 1248.5,531.7266 Q1248.25,531.4922 1248.25,531.1016 Q1248.25,530.7266 1248.5156,530.4922 Q1248.7813,530.2578 1249.3906,530.2578 L1249.6563,530.2578 L1249.6563,523.6016 L1249.3906,523.6016 Q1248.7656,523.6016 1248.5,523.3672 Q1248.25,523.1328 1248.25,522.7422 Q1248.25,522.3672 1248.5,522.1328 Q1248.7656,521.8984 1249.3906,521.8984 L1257.0156,521.8984 L1257.0156,524.4922 Q1257.0156,525.1016 1256.7813,525.3672 Q1256.5625,525.6172 1256.1719,525.6172 Q1255.7969,525.6172 1255.5625,525.3672 Q1255.3281,525.1016 1255.3281,524.4922 L1255.3281,523.6016 L1251.3594,523.6016 L1251.3594,526.0547 L1252.8438,526.0547 Q1252.8438,525.3984 1252.9688,525.2109 Q1253.2344,524.8047 1253.7031,524.8047 Q1254.0781,524.8047 1254.3125,525.0703 Q1254.5469,525.3203 1254.5469,525.9297 L1254.5469,527.8984 Q1254.5469,528.4453 1254.4219,528.6328 Q1254.1563,529.0234 1253.7031,529.0234 Q1253.2344,529.0234 1252.9688,528.6172 Q1252.8438,528.4297 1252.8438,527.7578 L1251.3594,527.7578 Z " fill="#000000"/><text fill="#000000" font-family="sans-serif" font-size="12" font-style="italic" lengthAdjust="spacing" textLength="79" x="1272" y="523.0664">&#171;Enumerado&#187;</text><text fill="#000000" font-family="sans-serif" font-size="14" lengthAdjust="spacing" textLength="90" x="1266.5" y="540.2363">EstadoCuenta</text><line style="stroke:#000000;stroke-width:0.5;" x1="1238.5" x2="1358.5" y1="548.3125" y2="548.3125"/><text fill="#000000" font-family="sans-serif" font-size="14" lengthAdjust="spacing" textLength="37" x="1243.5" y="566.8457">activa</text><text fill="#000000" font-family="sans-serif" font-size="14" lengthAdjust="spacing" textLength="73" x="1243.5" y="584.4551">suspendida</text><text fill="#000000" font-family="sans-serif" font-size="14" lengthAdjust="spacing" textLength="60" x="1243.5" y="602.0645">eliminada</text><line style="stroke:#000000;stroke-width:0.5;" x1="1238.5" x2="1358.5" y1="609.1406" y2="609.1406"/></g><!--class EstadoProducto--><g id="elem_EstadoProducto"><rect codeLine="27" fill="#FFFFFF" height="146.75" id="EstadoProducto" rx="2.5" ry="2.5" style="stroke:#000000;stroke-width:0.5;" width="133" x="2967" y="737.1094"/><ellipse cx="2982" cy="758.4609" fill="#EB937F" rx="11" ry="11" style="stroke:#181818;stroke-width:1.0;"/><path d="M2980.8594,759.2578 L2980.8594,761.7578 L2985.1875,761.7578 L2985.1875,760.8359 Q2985.1875,760.2266 2985.4219,759.9609 Q2985.6719,759.6953 2986.0469,759.6953 Q2986.4219,759.6953 2986.6563,759.9609 Q2986.8906,760.2266 2986.8906,760.8359 L2986.8906,763.4609 L2978.8906,763.4609 Q2978.2656,763.4609 2978,763.2266 Q2977.75,762.9922 2977.75,762.6016 Q2977.75,762.2266 2978.0156,761.9922 Q2978.2813,761.7578 2978.8906,761.7578 L2979.1563,761.7578 L2979.1563,755.1016 L2978.8906,755.1016 Q2978.2656,755.1016 2978,754.8672 Q2977.75,754.6328 2977.75,754.2422 Q2977.75,753.8672 2978,753.6328 Q2978.2656,753.3984 2978.8906,753.3984 L2986.5156,753.3984 L2986.5156,755.9922 Q2986.5156,756.6016 2986.2813,756.8672 Q2986.0625,757.1172 2985.6719,757.1172 Q2985.2969,757.1172 2985.0625,756.8672 Q2984.8281,756.6016 2984.8281,755.9922 L2984.8281,755.1016 L2980.8594,755.1016 L2980.8594,757.5547 L2982.3438,757.5547 Q2982.3438,756.8984 2982.4688,756.7109 Q2982.7344,756.3047 2983.2031,756.3047 Q2983.5781,756.3047 2983.8125,756.5703 Q2984.0469,756.8203 2984.0469,757.4297 L2984.0469,759.3984 Q2984.0469,759.9453 2983.9219,760.1328 Q2983.6563,760.5234 2983.2031,760.5234 Q2982.7344,760.5234 2982.4688,760.1172 Q2982.3438,759.9297 2982.3438,759.2578 L2980.8594,759.2578 Z " fill="#000000"/><text fill="#000000" font-family="sans-serif" font-size="12" font-style="italic" lengthAdjust="spacing" textLength="79" x="3007" y="754.5664">&#171;Enumerado&#187;</text><text fill="#000000" font-family="sans-serif" font-size="14" lengthAdjust="spacing" textLength="101" x="2996" y="771.7363">EstadoProducto</text><line style="stroke:#000000;stroke-width:0.5;" x1="2968" x2="3099" y1="779.8125" y2="779.8125"/><text fill="#000000" font-family="sans-serif" font-size="14" lengthAdjust="spacing" textLength="39" x="2973" y="798.3457">nuevo</text><text fill="#000000" font-family="sans-serif" font-size="14" lengthAdjust="spacing" textLength="74" x="2973" y="815.9551">comoNuevo</text><text fill="#000000" font-family="sans-serif" font-size="14" lengthAdjust="spacing" textLength="76" x="2973" y="833.5645">buenEstado</text><text fill="#000000" font-family="sans-serif" font-size="14" lengthAdjust="spacing" textLength="62" x="2973" y="851.1738">aceptable</text><text fill="#000000" font-family="sans-serif" font-size="14" lengthAdjust="spacing" textLength="81" x="2973" y="868.7832">paraReparar</text><line style="stroke:#000000;stroke-width:0.5;" x1="2968" x2="3099" y1="875.8594" y2="875.8594"/></g><!--class EstadoAnuncio--><g id="elem_EstadoAnuncio"><rect codeLine="35" fill="#FFFFFF" height="146.75" id="EstadoAnuncio" rx="2.5" ry="2.5" style="stroke:#000000;stroke-width:0.5;" width="127" x="2673" y="737.1094"/><ellipse cx="2688" cy="758.4609" fill="#EB937F" rx="11" ry="11" style="stroke:#181818;stroke-width:1.0;"/><path d="M2686.8594,759.2578 L2686.8594,761.7578 L2691.1875,761.7578 L2691.1875,760.8359 Q2691.1875,760.2266 2691.4219,759.9609 Q2691.6719,759.6953 2692.0469,759.6953 Q2692.4219,759.6953 2692.6563,759.9609 Q2692.8906,760.2266 2692.8906,760.8359 L2692.8906,763.4609 L2684.8906,763.4609 Q2684.2656,763.4609 2684,763.2266 Q2683.75,762.9922 2683.75,762.6016 Q2683.75,762.2266 2684.0156,761.9922 Q2684.2813,761.7578 2684.8906,761.7578 L2685.1563,761.7578 L2685.1563,755.1016 L2684.8906,755.1016 Q2684.2656,755.1016 2684,754.8672 Q2683.75,754.6328 2683.75,754.2422 Q2683.75,753.8672 2684,753.6328 Q2684.2656,753.3984 2684.8906,753.3984 L2692.5156,753.3984 L2692.5156,755.9922 Q2692.5156,756.6016 2692.2813,756.8672 Q2692.0625,757.1172 2691.6719,757.1172 Q2691.2969,757.1172 2691.0625,756.8672 Q2690.8281,756.6016 2690.8281,755.9922 L2690.8281,755.1016 L2686.8594,755.1016 L2686.8594,757.5547 L2688.3438,757.5547 Q2688.3438,756.8984 2688.4688,756.7109 Q2688.7344,756.3047 2689.2031,756.3047 Q2689.5781,756.3047 2689.8125,756.5703 Q2690.0469,756.8203 2690.0469,757.4297 L2690.0469,759.3984 Q2690.0469,759.9453 2689.9219,760.1328 Q2689.6563,760.5234 2689.2031,760.5234 Q2688.7344,760.5234 2688.4688,760.1172 Q2688.3438,759.9297 2688.3438,759.2578 L2686.8594,759.2578 Z " fill="#000000"/><text fill="#000000" font-family="sans-serif" font-size="12" font-style="italic" lengthAdjust="spacing" textLength="79" x="2710" y="754.5664">&#171;Enumerado&#187;</text><text fill="#000000" font-family="sans-serif" font-size="14" lengthAdjust="spacing" textLength="95" x="2702" y="771.7363">EstadoAnuncio</text><line style="stroke:#000000;stroke-width:0.5;" x1="2674" x2="2799" y1="779.8125" y2="779.8125"/><text fill="#000000" font-family="sans-serif" font-size="14" lengthAdjust="spacing" textLength="55" x="2679" y="798.3457">borrador</text><text fill="#000000" font-family="sans-serif" font-size="14" lengthAdjust="spacing" textLength="37" x="2679" y="815.9551">activo</text><text fill="#000000" font-family="sans-serif" font-size="14" lengthAdjust="spacing" textLength="50" x="2679" y="833.5645">vendido</text><text fill="#000000" font-family="sans-serif" font-size="14" lengthAdjust="spacing" textLength="48" x="2679" y="851.1738">inactivo</text><text fill="#000000" font-family="sans-serif" font-size="14" lengthAdjust="spacing" textLength="60" x="2679" y="868.7832">eliminado</text><line style="stroke:#000000;stroke-width:0.5;" x1="2674" x2="2799" y1="875.8594" y2="875.8594"/></g><!--class EstadoCategoria--><g id="elem_EstadoCategoria"><rect codeLine="43" fill="#FFFFFF" height="93.9219" id="EstadoCategoria" rx="2.5" ry="2.5" style="stroke:#000000;stroke-width:0.5;" width="138" x="2829.5" y="514.6094"/><ellipse cx="2844.5" cy="535.9609" fill="#EB937F" rx="11" ry="11" style="stroke:#181818;stroke-width:1.0;"/><path d="M2843.3594,536.7578 L2843.3594,539.2578 L2847.6875,539.2578 L2847.6875,538.3359 Q2847.6875,537.7266 2847.9219,537.4609 Q2848.1719,537.1953 2848.5469,537.1953 Q2848.9219,537.1953 2849.1563,537.4609 Q2849.3906,537.7266 2849.3906,538.3359 L2849.3906,540.9609 L2841.3906,540.9609 Q2840.7656,540.9609 2840.5,540.7266 Q2840.25,540.4922 2840.25,540.1016 Q2840.25,539.7266 2840.5156,539.4922 Q2840.7813,539.2578 2841.3906,539.2578 L2841.6563,539.2578 L2841.6563,532.6016 L2841.3906,532.6016 Q2840.7656,532.6016 2840.5,532.3672 Q2840.25,532.1328 2840.25,531.7422 Q2840.25,531.3672 2840.5,531.1328 Q2840.7656,530.8984 2841.3906,530.8984 L2849.0156,530.8984 L2849.0156,533.4922 Q2849.0156,534.1016 2848.7813,534.3672 Q2848.5625,534.6172 2848.1719,534.6172 Q2847.7969,534.6172 2847.5625,534.3672 Q2847.3281,534.1016 2847.3281,533.4922 L2847.3281,532.6016 L2843.3594,532.6016 L2843.3594,535.0547 L2844.8438,535.0547 Q2844.8438,534.3984 2844.9688,534.2109 Q2845.2344,533.8047 2845.7031,533.8047 Q2846.0781,533.8047 2846.3125,534.0703 Q2846.5469,534.3203 2846.5469,534.9297 L2846.5469,536.8984 Q2846.5469,537.4453 2846.4219,537.6328 Q2846.1563,538.0234 2845.7031,538.0234 Q2845.2344,538.0234 2844.9688,537.6172 Q2844.8438,537.4297 2844.8438,536.7578 L2843.3594,536.7578 Z " fill="#000000"/><text fill="#000000" font-family="sans-serif" font-size="12" font-style="italic" lengthAdjust="spacing" textLength="79" x="2872" y="532.0664">&#171;Enumerado&#187;</text><text fill="#000000" font-family="sans-serif" font-size="14" lengthAdjust="spacing" textLength="106" x="2858.5" y="549.2363">EstadoCategoria</text><line style="stroke:#000000;stroke-width:0.5;" x1="2830.5" x2="2966.5" y1="557.3125" y2="557.3125"/><text fill="#000000" font-family="sans-serif" font-size="14" lengthAdjust="spacing" textLength="37" x="2835.5" y="575.8457">activa</text><text fill="#000000" font-family="sans-serif" font-size="14" lengthAdjust="spacing" textLength="48" x="2835.5" y="593.4551">inactiva</text><line style="stroke:#000000;stroke-width:0.5;" x1="2830.5" x2="2966.5" y1="600.5313" y2="600.5313"/></g><!--class EstadoMensaje--><g id="elem_EstadoMensaje"><rect codeLine="48" fill="#FFFFFF" height="111.5313" id="EstadoMensaje" rx="2.5" ry="2.5" style="stroke:#000000;stroke-width:0.5;" width="129" x="1993" y="965.1094"/><ellipse cx="2008" cy="986.4609" fill="#EB937F" rx="11" ry="11" style="stroke:#181818;stroke-width:1.0;"/><path d="M2006.8594,987.2578 L2006.8594,989.7578 L2011.1875,989.7578 L2011.1875,988.8359 Q2011.1875,988.2266 2011.4219,987.9609 Q2011.6719,987.6953 2012.0469,987.6953 Q2012.4219,987.6953 2012.6563,987.9609 Q2012.8906,988.2266 2012.8906,988.8359 L2012.8906,991.4609 L2004.8906,991.4609 Q2004.2656,991.4609 2004,991.2266 Q2003.75,990.9922 2003.75,990.6016 Q2003.75,990.2266 2004.0156,989.9922 Q2004.2813,989.7578 2004.8906,989.7578 L2005.1563,989.7578 L2005.1563,983.1016 L2004.8906,983.1016 Q2004.2656,983.1016 2004,982.8672 Q2003.75,982.6328 2003.75,982.2422 Q2003.75,981.8672 2004,981.6328 Q2004.2656,981.3984 2004.8906,981.3984 L2012.5156,981.3984 L2012.5156,983.9922 Q2012.5156,984.6016 2012.2813,984.8672 Q2012.0625,985.1172 2011.6719,985.1172 Q2011.2969,985.1172 2011.0625,984.8672 Q2010.8281,984.6016 2010.8281,983.9922 L2010.8281,983.1016 L2006.8594,983.1016 L2006.8594,985.5547 L2008.3438,985.5547 Q2008.3438,984.8984 2008.4688,984.7109 Q2008.7344,984.3047 2009.2031,984.3047 Q2009.5781,984.3047 2009.8125,984.5703 Q2010.0469,984.8203 2010.0469,985.4297 L2010.0469,987.3984 Q2010.0469,987.9453 2009.9219,988.1328 Q2009.6563,988.5234 2009.2031,988.5234 Q2008.7344,988.5234 2008.4688,988.1172 Q2008.3438,987.9297 2008.3438,987.2578 L2006.8594,987.2578 Z " fill="#000000"/><text fill="#000000" font-family="sans-serif" font-size="12" font-style="italic" lengthAdjust="spacing" textLength="79" x="2031" y="982.5664">&#171;Enumerado&#187;</text><text fill="#000000" font-family="sans-serif" font-size="14" lengthAdjust="spacing" textLength="97" x="2022" y="999.7363">EstadoMensaje</text><line style="stroke:#000000;stroke-width:0.5;" x1="1994" x2="2121" y1="1007.8125" y2="1007.8125"/><text fill="#000000" font-family="sans-serif" font-size="14" lengthAdjust="spacing" textLength="50" x="1999" y="1026.3457">enviado</text><text fill="#000000" font-family="sans-serif" font-size="14" lengthAdjust="spacing" textLength="30" x="1999" y="1043.9551">leido</text><text fill="#000000" font-family="sans-serif" font-size="14" lengthAdjust="spacing" textLength="60" x="1999" y="1061.5645">eliminado</text><line style="stroke:#000000;stroke-width:0.5;" x1="1994" x2="2121" y1="1068.6406" y2="1068.6406"/></g><!--class TipoValoracion--><g id="elem_TipoValoracion"><rect codeLine="54" fill="#FFFFFF" height="93.9219" id="TipoValoracion" rx="2.5" ry="2.5" style="stroke:#000000;stroke-width:0.5;" width="127" x="1485" y="974.1094"/><ellipse cx="1500" cy="995.4609" fill="#EB937F" rx="11" ry="11" style="stroke:#181818;stroke-width:1.0;"/><path d="M1498.8594,996.2578 L1498.8594,998.7578 L1503.1875,998.7578 L1503.1875,997.8359 Q1503.1875,997.2266 1503.4219,996.9609 Q1503.6719,996.6953 1504.0469,996.6953 Q1504.4219,996.6953 1504.6563,996.9609 Q1504.8906,997.2266 1504.8906,997.8359 L1504.8906,1000.4609 L1496.8906,1000.4609 Q1496.2656,1000.4609 1496,1000.2266 Q1495.75,999.9922 1495.75,999.6016 Q1495.75,999.2266 1496.0156,998.9922 Q1496.2813,998.7578 1496.8906,998.7578 L1497.1563,998.7578 L1497.1563,992.1016 L1496.8906,992.1016 Q1496.2656,992.1016 1496,991.8672 Q1495.75,991.6328 1495.75,991.2422 Q1495.75,990.8672 1496,990.6328 Q1496.2656,990.3984 1496.8906,990.3984 L1504.5156,990.3984 L1504.5156,992.9922 Q1504.5156,993.6016 1504.2813,993.8672 Q1504.0625,994.1172 1503.6719,994.1172 Q1503.2969,994.1172 1503.0625,993.8672 Q1502.8281,993.6016 1502.8281,992.9922 L1502.8281,992.1016 L1498.8594,992.1016 L1498.8594,994.5547 L1500.3438,994.5547 Q1500.3438,993.8984 1500.4688,993.7109 Q1500.7344,993.3047 1501.2031,993.3047 Q1501.5781,993.3047 1501.8125,993.5703 Q1502.0469,993.8203 1502.0469,994.4297 L1502.0469,996.3984 Q1502.0469,996.9453 1501.9219,997.1328 Q1501.6563,997.5234 1501.2031,997.5234 Q1500.7344,997.5234 1500.4688,997.1172 Q1500.3438,996.9297 1500.3438,996.2578 L1498.8594,996.2578 Z " fill="#000000"/><text fill="#000000" font-family="sans-serif" font-size="12" font-style="italic" lengthAdjust="spacing" textLength="79" x="1522" y="991.5664">&#171;Enumerado&#187;</text><text fill="#000000" font-family="sans-serif" font-size="14" lengthAdjust="spacing" textLength="95" x="1514" y="1008.7363">TipoValoracion</text><line style="stroke:#000000;stroke-width:0.5;" x1="1486" x2="1611" y1="1016.8125" y2="1016.8125"/><text fill="#000000" font-family="sans-serif" font-size="14" lengthAdjust="spacing" textLength="105" x="1491" y="1035.3457">comoComprador</text><text fill="#000000" font-family="sans-serif" font-size="14" lengthAdjust="spacing" textLength="96" x="1491" y="1052.9551">comoVendedor</text><line style="stroke:#000000;stroke-width:0.5;" x1="1486" x2="1611" y1="1060.0313" y2="1060.0313"/></g><!--class EstadoTransaccion--><g id="elem_EstadoTransaccion"><rect codeLine="59" fill="#FFFFFF" height="146.75" id="EstadoTransaccion" rx="2.5" ry="2.5" style="stroke:#000000;stroke-width:0.5;" width="154" x="761.5" y="947.6094"/><ellipse cx="776.5" cy="968.9609" fill="#EB937F" rx="11" ry="11" style="stroke:#181818;stroke-width:1.0;"/><path d="M775.3594,969.7578 L775.3594,972.2578 L779.6875,972.2578 L779.6875,971.3359 Q779.6875,970.7266 779.9219,970.4609 Q780.1719,970.1953 780.5469,970.1953 Q780.9219,970.1953 781.1563,970.4609 Q781.3906,970.7266 781.3906,971.3359 L781.3906,973.9609 L773.3906,973.9609 Q772.7656,973.9609 772.5,973.7266 Q772.25,973.4922 772.25,973.1016 Q772.25,972.7266 772.5156,972.4922 Q772.7813,972.2578 773.3906,972.2578 L773.6563,972.2578 L773.6563,965.6016 L773.3906,965.6016 Q772.7656,965.6016 772.5,965.3672 Q772.25,965.1328 772.25,964.7422 Q772.25,964.3672 772.5,964.1328 Q772.7656,963.8984 773.3906,963.8984 L781.0156,963.8984 L781.0156,966.4922 Q781.0156,967.1016 780.7813,967.3672 Q780.5625,967.6172 780.1719,967.6172 Q779.7969,967.6172 779.5625,967.3672 Q779.3281,967.1016 779.3281,966.4922 L779.3281,965.6016 L775.3594,965.6016 L775.3594,968.0547 L776.8438,968.0547 Q776.8438,967.3984 776.9688,967.2109 Q777.2344,966.8047 777.7031,966.8047 Q778.0781,966.8047 778.3125,967.0703 Q778.5469,967.3203 778.5469,967.9297 L778.5469,969.8984 Q778.5469,970.4453 778.4219,970.6328 Q778.1563,971.0234 777.7031,971.0234 Q777.2344,971.0234 776.9688,970.6172 Q776.8438,970.4297 776.8438,969.7578 L775.3594,969.7578 Z " fill="#000000"/><text fill="#000000" font-family="sans-serif" font-size="12" font-style="italic" lengthAdjust="spacing" textLength="79" x="812" y="965.0664">&#171;Enumerado&#187;</text><text fill="#000000" font-family="sans-serif" font-size="14" lengthAdjust="spacing" textLength="122" x="790.5" y="982.2363">EstadoTransaccion</text><line style="stroke:#000000;stroke-width:0.5;" x1="762.5" x2="914.5" y1="990.3125" y2="990.3125"/><text fill="#000000" font-family="sans-serif" font-size="14" lengthAdjust="spacing" textLength="93" x="767.5" y="1008.8457">enNegociacion</text><text fill="#000000" font-family="sans-serif" font-size="14" lengthAdjust="spacing" textLength="64" x="767.5" y="1026.4551">confComp</text><text fill="#000000" font-family="sans-serif" font-size="14" lengthAdjust="spacing" textLength="60" x="767.5" y="1044.0645">confVend</text><text fill="#000000" font-family="sans-serif" font-size="14" lengthAdjust="spacing" textLength="73" x="767.5" y="1061.6738">completada</text><text fill="#000000" font-family="sans-serif" font-size="14" lengthAdjust="spacing" textLength="65" x="767.5" y="1079.2832">cancelada</text><line style="stroke:#000000;stroke-width:0.5;" x1="762.5" x2="914.5" y1="1086.3594" y2="1086.3594"/></g><!--class MetodoEntrega--><g id="elem_MetodoEntrega"><rect codeLine="67" fill="#FFFFFF" height="93.9219" id="MetodoEntrega" rx="2.5" ry="2.5" style="stroke:#000000;stroke-width:0.5;" width="129" x="951" y="974.1094"/><ellipse cx="966" cy="995.4609" fill="#EB937F" rx="11" ry="11" style="stroke:#181818;stroke-width:1.0;"/><path d="M964.8594,996.2578 L964.8594,998.7578 L969.1875,998.7578 L969.1875,997.8359 Q969.1875,997.2266 969.4219,996.9609 Q969.6719,996.6953 970.0469,996.6953 Q970.4219,996.6953 970.6563,996.9609 Q970.8906,997.2266 970.8906,997.8359 L970.8906,1000.4609 L962.8906,1000.4609 Q962.2656,1000.4609 962,1000.2266 Q961.75,999.9922 961.75,999.6016 Q961.75,999.2266 962.0156,998.9922 Q962.2813,998.7578 962.8906,998.7578 L963.1563,998.7578 L963.1563,992.1016 L962.8906,992.1016 Q962.2656,992.1016 962,991.8672 Q961.75,991.6328 961.75,991.2422 Q961.75,990.8672 962,990.6328 Q962.2656,990.3984 962.8906,990.3984 L970.5156,990.3984 L970.5156,992.9922 Q970.5156,993.6016 970.2813,993.8672 Q970.0625,994.1172 969.6719,994.1172 Q969.2969,994.1172 969.0625,993.8672 Q968.8281,993.6016 968.8281,992.9922 L968.8281,992.1016 L964.8594,992.1016 L964.8594,994.5547 L966.3438,994.5547 Q966.3438,993.8984 966.4688,993.7109 Q966.7344,993.3047 967.2031,993.3047 Q967.5781,993.3047 967.8125,993.5703 Q968.0469,993.8203 968.0469,994.4297 L968.0469,996.3984 Q968.0469,996.9453 967.9219,997.1328 Q967.6563,997.5234 967.2031,997.5234 Q966.7344,997.5234 966.4688,997.1172 Q966.3438,996.9297 966.3438,996.2578 L964.8594,996.2578 Z " fill="#000000"/><text fill="#000000" font-family="sans-serif" font-size="12" font-style="italic" lengthAdjust="spacing" textLength="79" x="989" y="991.5664">&#171;Enumerado&#187;</text><text fill="#000000" font-family="sans-serif" font-size="14" lengthAdjust="spacing" textLength="97" x="980" y="1008.7363">MetodoEntrega</text><line style="stroke:#000000;stroke-width:0.5;" x1="952" x2="1079" y1="1016.8125" y2="1016.8125"/><text fill="#000000" font-family="sans-serif" font-size="14" lengthAdjust="spacing" textLength="69" x="957" y="1035.3457">enPersona</text><text fill="#000000" font-family="sans-serif" font-size="14" lengthAdjust="spacing" textLength="73" x="957" y="1052.9551">intercambio</text><line style="stroke:#000000;stroke-width:0.5;" x1="952" x2="1079" y1="1060.0313" y2="1060.0313"/></g><!--class TipoReporte--><g id="elem_TipoReporte"><rect codeLine="72" fill="#FFFFFF" height="146.75" id="TipoReporte" rx="2.5" ry="2.5" style="stroke:#000000;stroke-width:0.5;" width="113" x="7" y="947.6094"/><ellipse cx="22.9" cy="968.9609" fill="#EB937F" rx="11" ry="11" style="stroke:#181818;stroke-width:1.0;"/><path d="M21.7594,969.7578 L21.7594,972.2578 L26.0875,972.2578 L26.0875,971.3359 Q26.0875,970.7266 26.3219,970.4609 Q26.5719,970.1953 26.9469,970.1953 Q27.3219,970.1953 27.5563,970.4609 Q27.7906,970.7266 27.7906,971.3359 L27.7906,973.9609 L19.7906,973.9609 Q19.1656,973.9609 18.9,973.7266 Q18.65,973.4922 18.65,973.1016 Q18.65,972.7266 18.9156,972.4922 Q19.1813,972.2578 19.7906,972.2578 L20.0563,972.2578 L20.0563,965.6016 L19.7906,965.6016 Q19.1656,965.6016 18.9,965.3672 Q18.65,965.1328 18.65,964.7422 Q18.65,964.3672 18.9,964.1328 Q19.1656,963.8984 19.7906,963.8984 L27.4156,963.8984 L27.4156,966.4922 Q27.4156,967.1016 27.1813,967.3672 Q26.9625,967.6172 26.5719,967.6172 Q26.1969,967.6172 25.9625,967.3672 Q25.7281,967.1016 25.7281,966.4922 L25.7281,965.6016 L21.7594,965.6016 L21.7594,968.0547 L23.2438,968.0547 Q23.2438,967.3984 23.3688,967.2109 Q23.6344,966.8047 24.1031,966.8047 Q24.4781,966.8047 24.7125,967.0703 Q24.9469,967.3203 24.9469,967.9297 L24.9469,969.8984 Q24.9469,970.4453 24.8219,970.6328 Q24.5563,971.0234 24.1031,971.0234 Q23.6344,971.0234 23.3688,970.6172 Q23.2438,970.4297 23.2438,969.7578 L21.7594,969.7578 Z " fill="#000000"/><text fill="#000000" font-family="sans-serif" font-size="12" font-style="italic" lengthAdjust="spacing" textLength="79" x="37.1" y="965.0664">&#171;Enumerado&#187;</text><text fill="#000000" font-family="sans-serif" font-size="14" lengthAdjust="spacing" textLength="79" x="37.1" y="982.2363">TipoReporte</text><line style="stroke:#000000;stroke-width:0.5;" x1="8" x2="119" y1="990.3125" y2="990.3125"/><text fill="#000000" font-family="sans-serif" font-size="14" lengthAdjust="spacing" textLength="41" x="13" y="1008.8457">fraude</text><text fill="#000000" font-family="sans-serif" font-size="14" lengthAdjust="spacing" textLength="53" x="13" y="1026.4551">ofensivo</text><text fill="#000000" font-family="sans-serif" font-size="14" lengthAdjust="spacing" textLength="34" x="13" y="1044.0645">spam</text><text fill="#000000" font-family="sans-serif" font-size="14" lengthAdjust="spacing" textLength="59" x="13" y="1061.6738">prohibido</text><text fill="#000000" font-family="sans-serif" font-size="14" lengthAdjust="spacing" textLength="101" x="13" y="1079.2832">comportamiento</text><line style="stroke:#000000;stroke-width:0.5;" x1="8" x2="119" y1="1086.3594" y2="1086.3594"/></g><!--class EstadoReporte--><g id="elem_EstadoReporte"><rect codeLine="80" fill="#FFFFFF" height="129.1406" id="EstadoReporte" rx="2.5" ry="2.5" style="stroke:#000000;stroke-width:0.5;" width="127" x="155" y="956.6094"/><ellipse cx="170" cy="977.9609" fill="#EB937F" rx="11" ry="11" style="stroke:#181818;stroke-width:1.0;"/><path d="M168.8594,978.7578 L168.8594,981.2578 L173.1875,981.2578 L173.1875,980.3359 Q173.1875,979.7266 173.4219,979.4609 Q173.6719,979.1953 174.0469,979.1953 Q174.4219,979.1953 174.6563,979.4609 Q174.8906,979.7266 174.8906,980.3359 L174.8906,982.9609 L166.8906,982.9609 Q166.2656,982.9609 166,982.7266 Q165.75,982.4922 165.75,982.1016 Q165.75,981.7266 166.0156,981.4922 Q166.2813,981.2578 166.8906,981.2578 L167.1563,981.2578 L167.1563,974.6016 L166.8906,974.6016 Q166.2656,974.6016 166,974.3672 Q165.75,974.1328 165.75,973.7422 Q165.75,973.3672 166,973.1328 Q166.2656,972.8984 166.8906,972.8984 L174.5156,972.8984 L174.5156,975.4922 Q174.5156,976.1016 174.2813,976.3672 Q174.0625,976.6172 173.6719,976.6172 Q173.2969,976.6172 173.0625,976.3672 Q172.8281,976.1016 172.8281,975.4922 L172.8281,974.6016 L168.8594,974.6016 L168.8594,977.0547 L170.3438,977.0547 Q170.3438,976.3984 170.4688,976.2109 Q170.7344,975.8047 171.2031,975.8047 Q171.5781,975.8047 171.8125,976.0703 Q172.0469,976.3203 172.0469,976.9297 L172.0469,978.8984 Q172.0469,979.4453 171.9219,979.6328 Q171.6563,980.0234 171.2031,980.0234 Q170.7344,980.0234 170.4688,979.6172 Q170.3438,979.4297 170.3438,978.7578 L168.8594,978.7578 Z " fill="#000000"/><text fill="#000000" font-family="sans-serif" font-size="12" font-style="italic" lengthAdjust="spacing" textLength="79" x="192" y="974.0664">&#171;Enumerado&#187;</text><text fill="#000000" font-family="sans-serif" font-size="14" lengthAdjust="spacing" textLength="95" x="184" y="991.2363">EstadoReporte</text><line style="stroke:#000000;stroke-width:0.5;" x1="156" x2="281" y1="999.3125" y2="999.3125"/><text fill="#000000" font-family="sans-serif" font-size="14" lengthAdjust="spacing" textLength="63" x="161" y="1017.8457">pendiente</text><text fill="#000000" font-family="sans-serif" font-size="14" lengthAdjust="spacing" textLength="70" x="161" y="1035.4551">enRevision</text><text fill="#000000" font-family="sans-serif" font-size="14" lengthAdjust="spacing" textLength="51" x="161" y="1053.0645">resuelto</text><text fill="#000000" font-family="sans-serif" font-size="14" lengthAdjust="spacing" textLength="80" x="161" y="1070.6738">desestimado</text><line style="stroke:#000000;stroke-width:0.5;" x1="156" x2="281" y1="1077.75" y2="1077.75"/></g><!--class AccionReporte--><g id="elem_AccionReporte"><rect codeLine="87" fill="#FFFFFF" height="129.1406" id="AccionReporte" rx="2.5" ry="2.5" style="stroke:#000000;stroke-width:0.5;" width="125" x="317" y="956.6094"/><ellipse cx="332" cy="977.9609" fill="#EB937F" rx="11" ry="11" style="stroke:#181818;stroke-width:1.0;"/><path d="M330.8594,978.7578 L330.8594,981.2578 L335.1875,981.2578 L335.1875,980.3359 Q335.1875,979.7266 335.4219,979.4609 Q335.6719,979.1953 336.0469,979.1953 Q336.4219,979.1953 336.6563,979.4609 Q336.8906,979.7266 336.8906,980.3359 L336.8906,982.9609 L328.8906,982.9609 Q328.2656,982.9609 328,982.7266 Q327.75,982.4922 327.75,982.1016 Q327.75,981.7266 328.0156,981.4922 Q328.2813,981.2578 328.8906,981.2578 L329.1563,981.2578 L329.1563,974.6016 L328.8906,974.6016 Q328.2656,974.6016 328,974.3672 Q327.75,974.1328 327.75,973.7422 Q327.75,973.3672 328,973.1328 Q328.2656,972.8984 328.8906,972.8984 L336.5156,972.8984 L336.5156,975.4922 Q336.5156,976.1016 336.2813,976.3672 Q336.0625,976.6172 335.6719,976.6172 Q335.2969,976.6172 335.0625,976.3672 Q334.8281,976.1016 334.8281,975.4922 L334.8281,974.6016 L330.8594,974.6016 L330.8594,977.0547 L332.3438,977.0547 Q332.3438,976.3984 332.4688,976.2109 Q332.7344,975.8047 333.2031,975.8047 Q333.5781,975.8047 333.8125,976.0703 Q334.0469,976.3203 334.0469,976.9297 L334.0469,978.8984 Q334.0469,979.4453 333.9219,979.6328 Q333.6563,980.0234 333.2031,980.0234 Q332.7344,980.0234 332.4688,979.6172 Q332.3438,979.4297 332.3438,978.7578 L330.8594,978.7578 Z " fill="#000000"/><text fill="#000000" font-family="sans-serif" font-size="12" font-style="italic" lengthAdjust="spacing" textLength="79" x="353" y="974.0664">&#171;Enumerado&#187;</text><text fill="#000000" font-family="sans-serif" font-size="14" lengthAdjust="spacing" textLength="93" x="346" y="991.2363">AccionReporte</text><line style="stroke:#000000;stroke-width:0.5;" x1="318" x2="441" y1="999.3125" y2="999.3125"/><text fill="#000000" font-family="sans-serif" font-size="14" lengthAdjust="spacing" textLength="74" x="323" y="1017.8457">advertencia</text><text fill="#000000" font-family="sans-serif" font-size="14" lengthAdjust="spacing" textLength="100" x="323" y="1035.4551">eliminarAnuncio</text><text fill="#000000" font-family="sans-serif" font-size="14" lengthAdjust="spacing" textLength="67" x="323" y="1053.0645">suspender</text><text fill="#000000" font-family="sans-serif" font-size="14" lengthAdjust="spacing" textLength="53" x="323" y="1070.6738">expulsar</text><line style="stroke:#000000;stroke-width:0.5;" x1="318" x2="441" y1="1077.75" y2="1077.75"/></g><!--class Usuario--><g id="elem_Usuario"><rect codeLine="98" fill="#FFFFFF" height="241.7031" id="Usuario" rx="2.5" ry="2.5" style="stroke:#000000;stroke-width:0.5;" width="211" x="1363" y="147.6094"/><ellipse cx="1440.25" cy="163.6094" fill="#ADD1B2" rx="11" ry="11" style="stroke:#181818;stroke-width:1.0;"/><path d="M1443.0156,159.4844 Q1443.1719,159.2656 1443.3594,159.1563 Q1443.5469,159.0469 1443.7656,159.0469 Q1444.1406,159.0469 1444.375,159.3125 Q1444.6094,159.5625 1444.6094,160.1719 L1444.6094,161.625 Q1444.6094,162.2344 1444.375,162.5 Q1444.1406,162.7656 1443.7656,162.7656 Q1443.4219,162.7656 1443.2188,162.5625 Q1443.0156,162.375 1442.9063,161.8594 Q1442.8594,161.5 1442.6719,161.3125 Q1442.3438,160.9375 1441.7344,160.7188 Q1441.125,160.5 1440.5,160.5 Q1439.7344,160.5 1439.0938,160.8281 Q1438.4688,161.1563 1437.9688,161.9063 Q1437.4844,162.6563 1437.4844,163.6875 L1437.4844,164.7813 Q1437.4844,166.0156 1438.375,166.8438 Q1439.2656,167.6563 1440.8594,167.6563 Q1441.7969,167.6563 1442.4531,167.4063 Q1442.8438,167.25 1443.2656,166.8125 Q1443.5313,166.5469 1443.6719,166.4688 Q1443.8281,166.3906 1444.0313,166.3906 Q1444.3594,166.3906 1444.6094,166.6563 Q1444.875,166.9063 1444.875,167.25 Q1444.875,167.5938 1444.5313,168 Q1444.0313,168.5781 1443.2344,168.9063 Q1442.1563,169.3594 1440.8594,169.3594 Q1439.3438,169.3594 1438.1406,168.7344 Q1437.1563,168.2344 1436.4688,167.1719 Q1435.7813,166.0938 1435.7813,164.8125 L1435.7813,163.6563 Q1435.7813,162.3281 1436.3906,161.1875 Q1437.0156,160.0313 1438.1094,159.4219 Q1439.2031,158.7969 1440.4375,158.7969 Q1441.1719,158.7969 1441.8125,158.9688 Q1442.4688,159.125 1443.0156,159.4844 Z " fill="#000000"/><text fill="#000000" font-family="sans-serif" font-size="14" lengthAdjust="spacing" textLength="48" x="1460.75" y="169.3379">Usuario</text><line style="stroke:#000000;stroke-width:0.5;" x1="1364" x2="1573" y1="179.6094" y2="179.6094"/><text fill="#000000" font-family="sans-serif" font-size="14" lengthAdjust="spacing" textLength="56" x="1369" y="198.1426">+nombre</text><text fill="#000000" font-family="sans-serif" font-size="14" lengthAdjust="spacing" textLength="123" x="1369" y="215.752">+correoInstitucional</text><text fill="#000000" font-family="sans-serif" font-size="14" lengthAdjust="spacing" textLength="125" x="1369" y="233.3613">+contrase&#241;aCifrada</text><text fill="#000000" font-family="sans-serif" font-size="14" lengthAdjust="spacing" textLength="58" x="1369" y="250.9707">+facultad</text><text fill="#000000" font-family="sans-serif" font-size="14" lengthAdjust="spacing" textLength="43" x="1369" y="268.5801">+curso</text><text fill="#000000" font-family="sans-serif" font-size="14" lengthAdjust="spacing" textLength="105" x="1369" y="286.1895">+rol : RolUsuario</text><text fill="#000000" font-family="sans-serif" font-size="14" lengthAdjust="spacing" textLength="199" x="1369" y="303.7988">+estadoCuenta : EstadoCuenta</text><text fill="#000000" font-family="sans-serif" font-size="14" lengthAdjust="spacing" textLength="111" x="1369" y="321.4082">+valoracionMedia</text><text fill="#000000" font-family="sans-serif" font-size="14" lengthAdjust="spacing" textLength="96" x="1369" y="339.0176">+fechaRegistro</text><text fill="#000000" font-family="sans-serif" font-size="14" lengthAdjust="spacing" textLength="64" x="1369" y="356.627">+fotoPerfil</text><text fill="#000000" font-family="sans-serif" font-size="14" lengthAdjust="spacing" textLength="136" x="1369" y="374.2363">+descripcionPersonal</text><line style="stroke:#000000;stroke-width:0.5;" x1="1364" x2="1573" y1="381.3125" y2="381.3125"/></g><!--class Anuncio--><g id="elem_Anuncio"><rect codeLine="112" fill="#FFFFFF" height="224.0938" id="Anuncio" rx="2.5" ry="2.5" style="stroke:#000000;stroke-width:0.5;" width="233" x="2128" y="449.6094"/><ellipse cx="2214.75" cy="465.6094" fill="#ADD1B2" rx="11" ry="11" style="stroke:#181818;stroke-width:1.0;"/><path d="M2217.5156,461.4844 Q2217.6719,461.2656 2217.8594,461.1563 Q2218.0469,461.0469 2218.2656,461.0469 Q2218.6406,461.0469 2218.875,461.3125 Q2219.1094,461.5625 2219.1094,462.1719 L2219.1094,463.625 Q2219.1094,464.2344 2218.875,464.5 Q2218.6406,464.7656 2218.2656,464.7656 Q2217.9219,464.7656 2217.7188,464.5625 Q2217.5156,464.375 2217.4063,463.8594 Q2217.3594,463.5 2217.1719,463.3125 Q2216.8438,462.9375 2216.2344,462.7188 Q2215.625,462.5 2215,462.5 Q2214.2344,462.5 2213.5938,462.8281 Q2212.9688,463.1563 2212.4688,463.9063 Q2211.9844,464.6563 2211.9844,465.6875 L2211.9844,466.7813 Q2211.9844,468.0156 2212.875,468.8438 Q2213.7656,469.6563 2215.3594,469.6563 Q2216.2969,469.6563 2216.9531,469.4063 Q2217.3438,469.25 2217.7656,468.8125 Q2218.0313,468.5469 2218.1719,468.4688 Q2218.3281,468.3906 2218.5313,468.3906 Q2218.8594,468.3906 2219.1094,468.6563 Q2219.375,468.9063 2219.375,469.25 Q2219.375,469.5938 2219.0313,470 Q2218.5313,470.5781 2217.7344,470.9063 Q2216.6563,471.3594 2215.3594,471.3594 Q2213.8438,471.3594 2212.6406,470.7344 Q2211.6563,470.2344 2210.9688,469.1719 Q2210.2813,468.0938 2210.2813,466.8125 L2210.2813,465.6563 Q2210.2813,464.3281 2210.8906,463.1875 Q2211.5156,462.0313 2212.6094,461.4219 Q2213.7031,460.7969 2214.9375,460.7969 Q2215.6719,460.7969 2216.3125,460.9688 Q2216.9688,461.125 2217.5156,461.4844 Z " fill="#000000"/><text fill="#000000" font-family="sans-serif" font-size="14" lengthAdjust="spacing" textLength="51" x="2235.25" y="471.3379">Anuncio</text><line style="stroke:#000000;stroke-width:0.5;" x1="2129" x2="2360" y1="481.6094" y2="481.6094"/><text fill="#000000" font-family="sans-serif" font-size="14" lengthAdjust="spacing" textLength="38" x="2134" y="500.1426">+titulo</text><text fill="#000000" font-family="sans-serif" font-size="14" lengthAdjust="spacing" textLength="80" x="2134" y="517.752">+descripcion</text><text fill="#000000" font-family="sans-serif" font-size="14" lengthAdjust="spacing" textLength="47" x="2134" y="535.3613">+precio</text><text fill="#000000" font-family="sans-serif" font-size="14" lengthAdjust="spacing" textLength="96" x="2134" y="552.9707">+esIntercambio</text><text fill="#000000" font-family="sans-serif" font-size="14" lengthAdjust="spacing" textLength="221" x="2134" y="570.5801">+estadoProducto : EstadoProducto</text><text fill="#000000" font-family="sans-serif" font-size="14" lengthAdjust="spacing" textLength="115" x="2134" y="588.1895">+fechaPublicacion</text><text fill="#000000" font-family="sans-serif" font-size="14" lengthAdjust="spacing" textLength="159" x="2134" y="605.7988">+fechaUltimaModificacion</text><text fill="#000000" font-family="sans-serif" font-size="14" lengthAdjust="spacing" textLength="209" x="2134" y="623.4082">+estadoAnuncio : EstadoAnuncio</text><text fill="#000000" font-family="sans-serif" font-size="14" lengthAdjust="spacing" textLength="118" x="2134" y="641.0176">+ubicacionEntrega</text><text fill="#000000" font-family="sans-serif" font-size="14" lengthAdjust="spacing" textLength="131" x="2134" y="658.627">+totalVisualizaciones</text><line style="stroke:#000000;stroke-width:0.5;" x1="2129" x2="2360" y1="665.7031" y2="665.7031"/></g><!--class Fotografia--><g id="elem_Fotografia"><rect codeLine="125" fill="#FFFFFF" height="118.4375" id="Fotografia" rx="2.5" ry="2.5" style="stroke:#000000;stroke-width:0.5;" width="97" x="2835" y="751.6094"/><ellipse cx="2850" cy="767.6094" fill="#ADD1B2" rx="11" ry="11" style="stroke:#181818;stroke-width:1.0;"/><path d="M2852.7656,763.4844 Q2852.9219,763.2656 2853.1094,763.1563 Q2853.2969,763.0469 2853.5156,763.0469 Q2853.8906,763.0469 2854.125,763.3125 Q2854.3594,763.5625 2854.3594,764.1719 L2854.3594,765.625 Q2854.3594,766.2344 2854.125,766.5 Q2853.8906,766.7656 2853.5156,766.7656 Q2853.1719,766.7656 2852.9688,766.5625 Q2852.7656,766.375 2852.6563,765.8594 Q2852.6094,765.5 2852.4219,765.3125 Q2852.0938,764.9375 2851.4844,764.7188 Q2850.875,764.5 2850.25,764.5 Q2849.4844,764.5 2848.8438,764.8281 Q2848.2188,765.1563 2847.7188,765.9063 Q2847.2344,766.6563 2847.2344,767.6875 L2847.2344,768.7813 Q2847.2344,770.0156 2848.125,770.8438 Q2849.0156,771.6563 2850.6094,771.6563 Q2851.5469,771.6563 2852.2031,771.4063 Q2852.5938,771.25 2853.0156,770.8125 Q2853.2813,770.5469 2853.4219,770.4688 Q2853.5781,770.3906 2853.7813,770.3906 Q2854.1094,770.3906 2854.3594,770.6563 Q2854.625,770.9063 2854.625,771.25 Q2854.625,771.5938 2854.2813,772 Q2853.7813,772.5781 2852.9844,772.9063 Q2851.9063,773.3594 2850.6094,773.3594 Q2849.0938,773.3594 2847.8906,772.7344 Q2846.9063,772.2344 2846.2188,771.1719 Q2845.5313,770.0938 2845.5313,768.8125 L2845.5313,767.6563 Q2845.5313,766.3281 2846.1406,765.1875 Q2846.7656,764.0313 2847.8594,763.4219 Q2848.9531,762.7969 2850.1875,762.7969 Q2850.9219,762.7969 2851.5625,762.9688 Q2852.2188,763.125 2852.7656,763.4844 Z " fill="#000000"/><text fill="#000000" font-family="sans-serif" font-size="14" lengthAdjust="spacing" textLength="65" x="2864" y="773.3379">Fotografia</text><line style="stroke:#000000;stroke-width:0.5;" x1="2836" x2="2931" y1="783.6094" y2="783.6094"/><text fill="#000000" font-family="sans-serif" font-size="14" lengthAdjust="spacing" textLength="24" x="2841" y="802.1426">+url</text><text fill="#000000" font-family="sans-serif" font-size="14" lengthAdjust="spacing" textLength="45" x="2841" y="819.752">+orden</text><text fill="#000000" font-family="sans-serif" font-size="14" lengthAdjust="spacing" textLength="82" x="2841" y="837.3613">+fechaCarga</text><text fill="#000000" font-family="sans-serif" font-size="14" lengthAdjust="spacing" textLength="75" x="2841" y="854.9707">+tamanoMB</text><line style="stroke:#000000;stroke-width:0.5;" x1="2836" x2="2931" y1="862.0469" y2="862.0469"/></g><!--class Categoria--><g id="elem_Categoria"><rect codeLine="132" fill="#FFFFFF" height="118.4375" id="Categoria" rx="2.5" ry="2.5" style="stroke:#000000;stroke-width:0.5;" width="181" x="2808" y="209.6094"/><ellipse cx="2863.25" cy="225.6094" fill="#ADD1B2" rx="11" ry="11" style="stroke:#181818;stroke-width:1.0;"/><path d="M2866.0156,221.4844 Q2866.1719,221.2656 2866.3594,221.1563 Q2866.5469,221.0469 2866.7656,221.0469 Q2867.1406,221.0469 2867.375,221.3125 Q2867.6094,221.5625 2867.6094,222.1719 L2867.6094,223.625 Q2867.6094,224.2344 2867.375,224.5 Q2867.1406,224.7656 2866.7656,224.7656 Q2866.4219,224.7656 2866.2188,224.5625 Q2866.0156,224.375 2865.9063,223.8594 Q2865.8594,223.5 2865.6719,223.3125 Q2865.3438,222.9375 2864.7344,222.7188 Q2864.125,222.5 2863.5,222.5 Q2862.7344,222.5 2862.0938,222.8281 Q2861.4688,223.1563 2860.9688,223.9063 Q2860.4844,224.6563 2860.4844,225.6875 L2860.4844,226.7813 Q2860.4844,228.0156 2861.375,228.8438 Q2862.2656,229.6563 2863.8594,229.6563 Q2864.7969,229.6563 2865.4531,229.4063 Q2865.8438,229.25 2866.2656,228.8125 Q2866.5313,228.5469 2866.6719,228.4688 Q2866.8281,228.3906 2867.0313,228.3906 Q2867.3594,228.3906 2867.6094,228.6563 Q2867.875,228.9063 2867.875,229.25 Q2867.875,229.5938 2867.5313,230 Q2867.0313,230.5781 2866.2344,230.9063 Q2865.1563,231.3594 2863.8594,231.3594 Q2862.3438,231.3594 2861.1406,230.7344 Q2860.1563,230.2344 2859.4688,229.1719 Q2858.7813,228.0938 2858.7813,226.8125 L2858.7813,225.6563 Q2858.7813,224.3281 2859.3906,223.1875 Q2860.0156,222.0313 2861.1094,221.4219 Q2862.2031,220.7969 2863.4375,220.7969 Q2864.1719,220.7969 2864.8125,220.9688 Q2865.4688,221.125 2866.0156,221.4844 Z " fill="#000000"/><text fill="#000000" font-family="sans-serif" font-size="14" lengthAdjust="spacing" textLength="62" x="2883.75" y="231.3379">Categoria</text><line style="stroke:#000000;stroke-width:0.5;" x1="2809" x2="2988" y1="241.6094" y2="241.6094"/><text fill="#000000" font-family="sans-serif" font-size="14" lengthAdjust="spacing" textLength="56" x="2814" y="260.1426">+nombre</text><text fill="#000000" font-family="sans-serif" font-size="14" lengthAdjust="spacing" textLength="80" x="2814" y="277.752">+descripcion</text><text fill="#000000" font-family="sans-serif" font-size="14" lengthAdjust="spacing" textLength="42" x="2814" y="295.3613">+icono</text><text fill="#000000" font-family="sans-serif" font-size="14" lengthAdjust="spacing" textLength="169" x="2814" y="312.9707">+estado : EstadoCategoria</text><line style="stroke:#000000;stroke-width:0.5;" x1="2809" x2="2988" y1="320.0469" y2="320.0469"/></g><!--class Mensaje--><g id="elem_Mensaje"><rect codeLine="139" fill="#FFFFFF" height="100.8281" id="Mensaje" rx="2.5" ry="2.5" style="stroke:#000000;stroke-width:0.5;" width="225" x="1945" y="760.1094"/><ellipse cx="2026.75" cy="776.1094" fill="#ADD1B2" rx="11" ry="11" style="stroke:#181818;stroke-width:1.0;"/><path d="M2029.5156,771.9844 Q2029.6719,771.7656 2029.8594,771.6563 Q2030.0469,771.5469 2030.2656,771.5469 Q2030.6406,771.5469 2030.875,771.8125 Q2031.1094,772.0625 2031.1094,772.6719 L2031.1094,774.125 Q2031.1094,774.7344 2030.875,775 Q2030.6406,775.2656 2030.2656,775.2656 Q2029.9219,775.2656 2029.7188,775.0625 Q2029.5156,774.875 2029.4063,774.3594 Q2029.3594,774 2029.1719,773.8125 Q2028.8438,773.4375 2028.2344,773.2188 Q2027.625,773 2027,773 Q2026.2344,773 2025.5938,773.3281 Q2024.9688,773.6563 2024.4688,774.4063 Q2023.9844,775.1563 2023.9844,776.1875 L2023.9844,777.2813 Q2023.9844,778.5156 2024.875,779.3438 Q2025.7656,780.1563 2027.3594,780.1563 Q2028.2969,780.1563 2028.9531,779.9063 Q2029.3438,779.75 2029.7656,779.3125 Q2030.0313,779.0469 2030.1719,778.9688 Q2030.3281,778.8906 2030.5313,778.8906 Q2030.8594,778.8906 2031.1094,779.1563 Q2031.375,779.4063 2031.375,779.75 Q2031.375,780.0938 2031.0313,780.5 Q2030.5313,781.0781 2029.7344,781.4063 Q2028.6563,781.8594 2027.3594,781.8594 Q2025.8438,781.8594 2024.6406,781.2344 Q2023.6563,780.7344 2022.9688,779.6719 Q2022.2813,778.5938 2022.2813,777.3125 L2022.2813,776.1563 Q2022.2813,774.8281 2022.8906,773.6875 Q2023.5156,772.5313 2024.6094,771.9219 Q2025.7031,771.2969 2026.9375,771.2969 Q2027.6719,771.2969 2028.3125,771.4688 Q2028.9688,771.625 2029.5156,771.9844 Z " fill="#000000"/><text fill="#000000" font-family="sans-serif" font-size="14" lengthAdjust="spacing" textLength="53" x="2047.25" y="781.8379">Mensaje</text><line style="stroke:#000000;stroke-width:0.5;" x1="1946" x2="2169" y1="792.1094" y2="792.1094"/><text fill="#000000" font-family="sans-serif" font-size="14" lengthAdjust="spacing" textLength="70" x="1951" y="810.6426">+contenido</text><text fill="#000000" font-family="sans-serif" font-size="14" lengthAdjust="spacing" textLength="78" x="1951" y="828.252">+fechaEnvio</text><text fill="#000000" font-family="sans-serif" font-size="14" lengthAdjust="spacing" textLength="213" x="1951" y="845.8613">+estadoMensaje : EstadoMensaje</text><line style="stroke:#000000;stroke-width:0.5;" x1="1946" x2="2169" y1="852.9375" y2="852.9375"/></g><!--class Valoracion--><g id="elem_Valoracion"><rect codeLine="145" fill="#FFFFFF" height="118.4375" id="Valoracion" rx="2.5" ry="2.5" style="stroke:#000000;stroke-width:0.5;" width="150" x="1473.5" y="751.6094"/><ellipse cx="1511.45" cy="767.6094" fill="#ADD1B2" rx="11" ry="11" style="stroke:#181818;stroke-width:1.0;"/><path d="M1514.2156,763.4844 Q1514.3719,763.2656 1514.5594,763.1563 Q1514.7469,763.0469 1514.9656,763.0469 Q1515.3406,763.0469 1515.575,763.3125 Q1515.8094,763.5625 1515.8094,764.1719 L1515.8094,765.625 Q1515.8094,766.2344 1515.575,766.5 Q1515.3406,766.7656 1514.9656,766.7656 Q1514.6219,766.7656 1514.4188,766.5625 Q1514.2156,766.375 1514.1063,765.8594 Q1514.0594,765.5 1513.8719,765.3125 Q1513.5438,764.9375 1512.9344,764.7188 Q1512.325,764.5 1511.7,764.5 Q1510.9344,764.5 1510.2938,764.8281 Q1509.6688,765.1563 1509.1688,765.9063 Q1508.6844,766.6563 1508.6844,767.6875 L1508.6844,768.7813 Q1508.6844,770.0156 1509.575,770.8438 Q1510.4656,771.6563 1512.0594,771.6563 Q1512.9969,771.6563 1513.6531,771.4063 Q1514.0438,771.25 1514.4656,770.8125 Q1514.7313,770.5469 1514.8719,770.4688 Q1515.0281,770.3906 1515.2313,770.3906 Q1515.5594,770.3906 1515.8094,770.6563 Q1516.075,770.9063 1516.075,771.25 Q1516.075,771.5938 1515.7313,772 Q1515.2313,772.5781 1514.4344,772.9063 Q1513.3563,773.3594 1512.0594,773.3594 Q1510.5438,773.3594 1509.3406,772.7344 Q1508.3563,772.2344 1507.6688,771.1719 Q1506.9813,770.0938 1506.9813,768.8125 L1506.9813,767.6563 Q1506.9813,766.3281 1507.5906,765.1875 Q1508.2156,764.0313 1509.3094,763.4219 Q1510.4031,762.7969 1511.6375,762.7969 Q1512.3719,762.7969 1513.0125,762.9688 Q1513.6688,763.125 1514.2156,763.4844 Z " fill="#000000"/><text fill="#000000" font-family="sans-serif" font-size="14" lengthAdjust="spacing" textLength="67" x="1530.55" y="773.3379">Valoracion</text><line style="stroke:#000000;stroke-width:0.5;" x1="1474.5" x2="1622.5" y1="783.6094" y2="783.6094"/><text fill="#000000" font-family="sans-serif" font-size="14" lengthAdjust="spacing" textLength="114" x="1479.5" y="802.1426">+puntuacion [1..5]</text><text fill="#000000" font-family="sans-serif" font-size="14" lengthAdjust="spacing" textLength="78" x="1479.5" y="819.752">+comentario</text><text fill="#000000" font-family="sans-serif" font-size="14" lengthAdjust="spacing" textLength="43" x="1479.5" y="837.3613">+fecha</text><text fill="#000000" font-family="sans-serif" font-size="14" lengthAdjust="spacing" textLength="138" x="1479.5" y="854.9707">+tipo : TipoValoracion</text><line style="stroke:#000000;stroke-width:0.5;" x1="1474.5" x2="1622.5" y1="862.0469" y2="862.0469"/></g><!--class Transaccion--><g id="elem_Transaccion"><rect codeLine="152" fill="#FFFFFF" height="136.0469" id="Transaccion" rx="2.5" ry="2.5" style="stroke:#000000;stroke-width:0.5;" width="275" x="790" y="742.6094"/><ellipse cx="884.25" cy="758.6094" fill="#ADD1B2" rx="11" ry="11" style="stroke:#181818;stroke-width:1.0;"/><path d="M887.0156,754.4844 Q887.1719,754.2656 887.3594,754.1563 Q887.5469,754.0469 887.7656,754.0469 Q888.1406,754.0469 888.375,754.3125 Q888.6094,754.5625 888.6094,755.1719 L888.6094,756.625 Q888.6094,757.2344 888.375,757.5 Q888.1406,757.7656 887.7656,757.7656 Q887.4219,757.7656 887.2188,757.5625 Q887.0156,757.375 886.9063,756.8594 Q886.8594,756.5 886.6719,756.3125 Q886.3438,755.9375 885.7344,755.7188 Q885.125,755.5 884.5,755.5 Q883.7344,755.5 883.0938,755.8281 Q882.4688,756.1563 881.9688,756.9063 Q881.4844,757.6563 881.4844,758.6875 L881.4844,759.7813 Q881.4844,761.0156 882.375,761.8438 Q883.2656,762.6563 884.8594,762.6563 Q885.7969,762.6563 886.4531,762.4063 Q886.8438,762.25 887.2656,761.8125 Q887.5313,761.5469 887.6719,761.4688 Q887.8281,761.3906 888.0313,761.3906 Q888.3594,761.3906 888.6094,761.6563 Q888.875,761.9063 888.875,762.25 Q888.875,762.5938 888.5313,763 Q888.0313,763.5781 887.2344,763.9063 Q886.1563,764.3594 884.8594,764.3594 Q883.3438,764.3594 882.1406,763.7344 Q881.1563,763.2344 880.4688,762.1719 Q879.7813,761.0938 879.7813,759.8125 L879.7813,758.6563 Q879.7813,757.3281 880.3906,756.1875 Q881.0156,755.0313 882.1094,754.4219 Q883.2031,753.7969 884.4375,753.7969 Q885.1719,753.7969 885.8125,753.9688 Q886.4688,754.125 887.0156,754.4844 Z " fill="#000000"/><text fill="#000000" font-family="sans-serif" font-size="14" lengthAdjust="spacing" textLength="78" x="904.75" y="764.3379">Transaccion</text><line style="stroke:#000000;stroke-width:0.5;" x1="791" x2="1064" y1="774.6094" y2="774.6094"/><text fill="#000000" font-family="sans-serif" font-size="14" lengthAdjust="spacing" textLength="75" x="796" y="793.1426">+fechaInicio</text><text fill="#000000" font-family="sans-serif" font-size="14" lengthAdjust="spacing" textLength="63" x="796" y="810.752">+fechaFin</text><text fill="#000000" font-family="sans-serif" font-size="14" lengthAdjust="spacing" textLength="263" x="796" y="828.3613">+estadoTransaccion : EstadoTransaccion</text><text fill="#000000" font-family="sans-serif" font-size="14" lengthAdjust="spacing" textLength="78" x="796" y="845.9707">+precioFinal</text><text fill="#000000" font-family="sans-serif" font-size="14" lengthAdjust="spacing" textLength="214" x="796" y="863.5801">+metodoEntrega : MetodoEntrega</text><line style="stroke:#000000;stroke-width:0.5;" x1="791" x2="1064" y1="870.6563" y2="870.6563"/></g><!--class Reporte--><g id="elem_Reporte"><rect codeLine="160" fill="#FFFFFF" height="153.6563" id="Reporte" rx="2.5" ry="2.5" style="stroke:#000000;stroke-width:0.5;" width="254" x="91.5" y="733.6094"/><ellipse cx="188.75" cy="749.6094" fill="#ADD1B2" rx="11" ry="11" style="stroke:#181818;stroke-width:1.0;"/><path d="M191.5156,745.4844 Q191.6719,745.2656 191.8594,745.1563 Q192.0469,745.0469 192.2656,745.0469 Q192.6406,745.0469 192.875,745.3125 Q193.1094,745.5625 193.1094,746.1719 L193.1094,747.625 Q193.1094,748.2344 192.875,748.5 Q192.6406,748.7656 192.2656,748.7656 Q191.9219,748.7656 191.7188,748.5625 Q191.5156,748.375 191.4063,747.8594 Q191.3594,747.5 191.1719,747.3125 Q190.8438,746.9375 190.2344,746.7188 Q189.625,746.5 189,746.5 Q188.2344,746.5 187.5938,746.8281 Q186.9688,747.1563 186.4688,747.9063 Q185.9844,748.6563 185.9844,749.6875 L185.9844,750.7813 Q185.9844,752.0156 186.875,752.8438 Q187.7656,753.6563 189.3594,753.6563 Q190.2969,753.6563 190.9531,753.4063 Q191.3438,753.25 191.7656,752.8125 Q192.0313,752.5469 192.1719,752.4688 Q192.3281,752.3906 192.5313,752.3906 Q192.8594,752.3906 193.1094,752.6563 Q193.375,752.9063 193.375,753.25 Q193.375,753.5938 193.0313,754 Q192.5313,754.5781 191.7344,754.9063 Q190.6563,755.3594 189.3594,755.3594 Q187.8438,755.3594 186.6406,754.7344 Q185.6563,754.2344 184.9688,753.1719 Q184.2813,752.0938 184.2813,750.8125 L184.2813,749.6563 Q184.2813,748.3281 184.8906,747.1875 Q185.5156,746.0313 186.6094,745.4219 Q187.7031,744.7969 188.9375,744.7969 Q189.6719,744.7969 190.3125,744.9688 Q190.9688,745.125 191.5156,745.4844 Z " fill="#000000"/><text fill="#000000" font-family="sans-serif" font-size="14" lengthAdjust="spacing" textLength="51" x="209.25" y="755.3379">Reporte</text><line style="stroke:#000000;stroke-width:0.5;" x1="92.5" x2="344.5" y1="765.6094" y2="765.6094"/><text fill="#000000" font-family="sans-serif" font-size="14" lengthAdjust="spacing" textLength="173" x="97.5" y="784.1426">+tipoReporte : TipoReporte</text><text fill="#000000" font-family="sans-serif" font-size="14" lengthAdjust="spacing" textLength="121" x="97.5" y="801.752">+descripcionMotivo</text><text fill="#000000" font-family="sans-serif" font-size="14" lengthAdjust="spacing" textLength="94" x="97.5" y="819.3613">+fechaReporte</text><text fill="#000000" font-family="sans-serif" font-size="14" lengthAdjust="spacing" textLength="209" x="97.5" y="836.9707">+estadoReporte : EstadoReporte</text><text fill="#000000" font-family="sans-serif" font-size="14" lengthAdjust="spacing" textLength="113" x="97.5" y="854.5801">+fechaResolucion</text><text fill="#000000" font-family="sans-serif" font-size="14" lengthAdjust="spacing" textLength="242" x="97.5" y="872.1895">+accionTomada : AccionReporte [0..1]</text><line style="stroke:#000000;stroke-width:0.5;" x1="92.5" x2="344.5" y1="879.2656" y2="879.2656"/></g><g id="elem_GMN51"><path d="M1609.5,239.1094 L1609.5,264.6094 L1574.07,268.6094 L1609.5,272.6094 L1609.5,298.1641 A0,0 0 0 0 1609.5,298.1641 L2085.5,298.1641 A0,0 0 0 0 2085.5,298.1641 L2085.5,249.1094 L2075.5,239.1094 L1609.5,239.1094 A0,0 0 0 0 1609.5,239.1094 " fill="#FEFFDD" style="stroke:#181818;stroke-width:0.5;"/><path d="M2075.5,239.1094 L2075.5,249.1094 L2085.5,249.1094 L2075.5,239.1094 " fill="#FEFFDD" style="stroke:#181818;stroke-width:0.5;"/><text fill="#000000" font-family="sans-serif" font-size="13" lengthAdjust="spacing" textLength="96" x="1615.5" y="257.6045">R.N.01 / R.N.02:</text><text fill="#000000" font-family="sans-serif" font-size="13" lengthAdjust="spacing" textLength="383" x="1615.5" y="273.9561">- correoInstitucional debe pertenecer a dominio institucional v&#225;lido.</text><text fill="#000000" font-family="sans-serif" font-size="13" lengthAdjust="spacing" textLength="455" x="1615.5" y="290.3076">- Solo usuarios verificados/autenticados publican, buscan, contactan y valoran.</text></g><g id="elem_GMN54"><path d="M2396.5,499.6094 L2396.5,557.6094 L2361.38,561.6094 L2396.5,565.6094 L2396.5,624.0703 A0,0 0 0 0 2396.5,624.0703 L2794.5,624.0703 A0,0 0 0 0 2794.5,624.0703 L2794.5,509.6094 L2784.5,499.6094 L2396.5,499.6094 A0,0 0 0 0 2396.5,499.6094 " fill="#FEFFDD" style="stroke:#181818;stroke-width:0.5;"/><path d="M2784.5,499.6094 L2784.5,509.6094 L2794.5,509.6094 L2784.5,499.6094 " fill="#FEFFDD" style="stroke:#181818;stroke-width:0.5;"/><text fill="#000000" font-family="sans-serif" font-size="13" lengthAdjust="spacing" textLength="252" x="2402.5" y="518.1045">R.N.03 / R.N.04 / R.N.05 / R.N.06 / R.N.07:</text><text fill="#000000" font-family="sans-serif" font-size="13" lengthAdjust="spacing" textLength="209" x="2402.5" y="534.4561">- Solo "activo" visible en b&#250;squedas.</text><text fill="#000000" font-family="sans-serif" font-size="13" lengthAdjust="spacing" textLength="231" x="2402.5" y="550.8076">- titulo [10..100], descripcion [20..1000].</text><text fill="#000000" font-family="sans-serif" font-size="13" lengthAdjust="spacing" textLength="233" x="2402.5" y="567.1592">- Auto-inactivo tras 90 d&#237;as sin actividad.</text><text fill="#000000" font-family="sans-serif" font-size="13" lengthAdjust="spacing" textLength="354" x="2402.5" y="583.5107">- 1..5 fotograf&#237;as obligatorias, m&#225;x 5MB c/u, formatos v&#225;lidos.</text><text fill="#000000" font-family="sans-serif" font-size="13" lengthAdjust="spacing" textLength="303" x="2402.5" y="599.8623">- Registrar fechaUltimaModificacion en cada edici&#243;n.</text><text fill="#000000" font-family="sans-serif" font-size="13" lengthAdjust="spacing" textLength="377" x="2402.5" y="616.2139">- precio &#8712; (0..500] salvo aprobaci&#243;n admin; o esIntercambio=true.</text></g><g id="elem_GMN57"><path d="M2205,781.1094 L2205,806.6094 L2170.18,810.6094 L2205,814.6094 L2205,840.1641 A0,0 0 0 0 2205,840.1641 L2638,840.1641 A0,0 0 0 0 2638,840.1641 L2638,791.1094 L2628,781.1094 L2205,781.1094 A0,0 0 0 0 2205,781.1094 " fill="#FEFFDD" style="stroke:#181818;stroke-width:0.5;"/><path d="M2628,781.1094 L2628,791.1094 L2638,791.1094 L2628,781.1094 " fill="#FEFFDD" style="stroke:#181818;stroke-width:0.5;"/><text fill="#000000" font-family="sans-serif" font-size="13" lengthAdjust="spacing" textLength="44" x="2211" y="799.6045">R.N.08:</text><text fill="#000000" font-family="sans-serif" font-size="13" lengthAdjust="spacing" textLength="412" x="2211" y="815.9561">- Moderaci&#243;n autom&#225;tica: bloqueo de ofensivo/datos sensibles/enlaces.</text><text fill="#000000" font-family="sans-serif" font-size="13" lengthAdjust="spacing" textLength="207" x="2211" y="832.3076">- Solo participantes acceden al hilo.</text></g><g id="elem_GMN60"><path d="M1659,781.1094 L1659,806.6094 L1623.82,810.6094 L1659,814.6094 L1659,840.1641 A0,0 0 0 0 1659,840.1641 L1910,840.1641 A0,0 0 0 0 1910,840.1641 L1910,791.1094 L1900,781.1094 L1659,781.1094 A0,0 0 0 0 1659,781.1094 " fill="#FEFFDD" style="stroke:#181818;stroke-width:0.5;"/><path d="M1900,781.1094 L1900,791.1094 L1910,791.1094 L1900,781.1094 " fill="#FEFFDD" style="stroke:#181818;stroke-width:0.5;"/><text fill="#000000" font-family="sans-serif" font-size="13" lengthAdjust="spacing" textLength="95" x="1665" y="799.6045">R.F.05 / R.N.09:</text><text fill="#000000" font-family="sans-serif" font-size="13" lengthAdjust="spacing" textLength="216" x="1665" y="815.9561">- Solo tras transacci&#243;n "completada".</text><text fill="#000000" font-family="sans-serif" font-size="13" lengthAdjust="spacing" textLength="230" x="1665" y="832.3076">- 1 valoraci&#243;n por usuario y transacci&#243;n.</text></g><g id="elem_GMN63"><path d="M1100,781.1094 L1100,806.6094 L1065.47,810.6094 L1100,814.6094 L1100,840.1641 A0,0 0 0 0 1100,840.1641 L1431,840.1641 A0,0 0 0 0 1431,840.1641 L1431,791.1094 L1421,781.1094 L1100,781.1094 A0,0 0 0 0 1100,781.1094 " fill="#FEFFDD" style="stroke:#181818;stroke-width:0.5;"/><path d="M1421,781.1094 L1421,791.1094 L1431,791.1094 L1421,781.1094 " fill="#FEFFDD" style="stroke:#181818;stroke-width:0.5;"/><text fill="#000000" font-family="sans-serif" font-size="13" lengthAdjust="spacing" textLength="44" x="1106" y="799.6045">R.N.09:</text><text fill="#000000" font-family="sans-serif" font-size="13" lengthAdjust="spacing" textLength="310" x="1106" y="815.9561">- Estado "completada" requiere confirmaci&#243;n bilateral.</text><text fill="#000000" font-family="sans-serif" font-size="13" lengthAdjust="spacing" textLength="213" x="1106" y="832.3076">- Al completar: Anuncio -&gt; "vendido".</text></g><g id="elem_GMN66"><path d="M380.5,781.1094 L380.5,806.6094 L345.98,810.6094 L380.5,814.6094 L380.5,840.1641 A0,0 0 0 0 380.5,840.1641 L754.5,840.1641 A0,0 0 0 0 754.5,840.1641 L754.5,791.1094 L744.5,781.1094 L380.5,781.1094 A0,0 0 0 0 380.5,781.1094 " fill="#FEFFDD" style="stroke:#181818;stroke-width:0.5;"/><path d="M744.5,781.1094 L744.5,791.1094 L754.5,791.1094 L744.5,781.1094 " fill="#FEFFDD" style="stroke:#181818;stroke-width:0.5;"/><text fill="#000000" font-family="sans-serif" font-size="13" lengthAdjust="spacing" textLength="44" x="386.5" y="799.6045">R.N.10:</text><text fill="#000000" font-family="sans-serif" font-size="13" lengthAdjust="spacing" textLength="353" x="386.5" y="815.9561">- Revisi&#243;n &#8804; 72h; &#8805;3 reportes distintos -&gt; desactivar anuncio.</text><text fill="#000000" font-family="sans-serif" font-size="13" lengthAdjust="spacing" textLength="276" x="386.5" y="832.3076">- 5 confirmados -&gt; suspensi&#243;n; 10 -&gt; expulsi&#243;n.</text></g><g id="elem_GMN69"><path d="M3002.5,532.1094 L3002.5,591.1641 L3326.5,591.1641 L3326.5,542.1094 L3316.5,532.1094 L3002.5,532.1094 " fill="#FEFFDD" style="stroke:#181818;stroke-width:0.5;"/><path d="M3316.5,532.1094 L3316.5,542.1094 L3326.5,542.1094 L3316.5,532.1094 " fill="#FEFFDD" style="stroke:#181818;stroke-width:1.0;"/><text fill="#000000" font-family="sans-serif" font-size="13" lengthAdjust="spacing" textLength="44" x="3008.5" y="550.6045">R.N.11:</text><text fill="#000000" font-family="sans-serif" font-size="13" lengthAdjust="spacing" textLength="260" x="3008.5" y="566.9561">- Crear/editar/eliminar solo rol=administrador.</text><text fill="#000000" font-family="sans-serif" font-size="13" lengthAdjust="spacing" textLength="303" x="3008.5" y="583.3076">- No eliminar si hay anuncios activos (solo inactivar).</text></g><g id="elem_GMN72"><path d="M1395,532.1094 L1395,591.1641 A0,0 0 0 0 1395,591.1641 L1882,591.1641 A0,0 0 0 0 1882,591.1641 L1882,542.1094 L1872,532.1094 L1443.75,532.1094 L1439.75,389.8994 L1435.75,532.1094 L1395,532.1094 A0,0 0 0 0 1395,532.1094 " fill="#FEFFDD" style="stroke:#181818;stroke-width:0.5;"/><path d="M1872,532.1094 L1872,542.1094 L1882,542.1094 L1872,532.1094 " fill="#FEFFDD" style="stroke:#181818;stroke-width:0.5;"/><text fill="#000000" font-family="sans-serif" font-size="13" lengthAdjust="spacing" textLength="96" x="1401" y="550.6045">R.N.12 / R.N.11:</text><text fill="#000000" font-family="sans-serif" font-size="13" lengthAdjust="spacing" textLength="466" x="1401" y="566.9561">- RGPD/LOPDGDD: consentimiento, derechos ARCO-P, cifrado de contrase&#241;as.</text><text fill="#000000" font-family="sans-serif" font-size="13" lengthAdjust="spacing" textLength="393" x="1401" y="583.3076">- rol=administrador con permisos exclusivos de moderaci&#243;n/gesti&#243;n.</text></g><g id="elem_R_AutoVal"><path d="M839.5,540.1094 L839.5,582.8125 L1059.5,582.8125 L1059.5,550.1094 L1049.5,540.1094 L839.5,540.1094 " fill="#FEFFDD" style="stroke:#181818;stroke-width:0.5;"/><path d="M1049.5,540.1094 L1049.5,550.1094 L1059.5,550.1094 L1049.5,540.1094 " fill="#FEFFDD" style="stroke:#181818;stroke-width:1.0;"/><text fill="#000000" font-family="sans-serif" font-size="13" lengthAdjust="spacing" textLength="69" x="845.5" y="558.6045">Restricci&#243;n:</text><text fill="#000000" font-family="sans-serif" font-size="13" lengthAdjust="spacing" textLength="199" x="845.5" y="574.9561">Emisor != Receptor en Valoracion.</text></g><g id="elem_R_ReportesLimite"><path d="M306,540.1094 L306,582.8125 A0,0 0 0 0 306,582.8125 L315.17,582.8125 L319.17,733.5594 L323.17,582.8125 L699,582.8125 A0,0 0 0 0 699,582.8125 L699,550.1094 L689,540.1094 L306,540.1094 A0,0 0 0 0 306,540.1094 " fill="#FEFFDD" style="stroke:#181818;stroke-width:0.5;"/><path d="M689,540.1094 L689,550.1094 L699,550.1094 L689,540.1094 " fill="#FEFFDD" style="stroke:#181818;stroke-width:0.5;"/><text fill="#000000" font-family="sans-serif" font-size="13" lengthAdjust="spacing" textLength="69" x="312" y="558.6045">Restricci&#243;n:</text><text fill="#000000" font-family="sans-serif" font-size="13" lengthAdjust="spacing" textLength="372" x="312" y="574.9561">count(Reportes del mismo usuario sobre el mismo anuncio) &#8804; 3.</text></g><g id="elem_R_Deriv"><path d="M1272.5,44.6094 L1272.5,87.3125 A0,0 0 0 0 1272.5,87.3125 L1464.5,87.3125 L1468.5,147.2694 L1472.5,87.3125 L1664.5,87.3125 A0,0 0 0 0 1664.5,87.3125 L1664.5,54.6094 L1654.5,44.6094 L1272.5,44.6094 A0,0 0 0 0 1272.5,44.6094 " fill="#FEFFDD" style="stroke:#181818;stroke-width:0.5;"/><path d="M1654.5,44.6094 L1654.5,54.6094 L1664.5,54.6094 L1654.5,44.6094 " fill="#FEFFDD" style="stroke:#181818;stroke-width:0.5;"/><text fill="#000000" font-family="sans-serif" font-size="13" lengthAdjust="spacing" textLength="63" x="1278.5" y="63.1045">Derivaci&#243;n:</text><text fill="#000000" font-family="sans-serif" font-size="13" lengthAdjust="spacing" textLength="371" x="1278.5" y="79.4561">Usuario.valoracionMedia = avg(Valoracion.puntuacion recibidas).</text></g><!--link Usuario to RolUsuario--><g id="link_Usuario_RolUsuario"><path codeLine="173" d="M1362.83,341.6094 C1269.62,341.6094 1148.5,341.6094 1148.5,341.6094 C1148.5,341.6094 1148.5,443.7694 1148.5,508.4094 " fill="none" id="Usuario-to-RolUsuario" style="stroke:#000000;stroke-width:1.0;stroke-dasharray:7.0,7.0;"/><polygon fill="#000000" points="1148.5,514.4094,1152.5,505.4094,1148.5,509.4094,1144.5,505.4094,1148.5,514.4094" style="stroke:#000000;stroke-width:1.0;"/></g><!--link Usuario to EstadoCuenta--><g id="link_Usuario_EstadoCuenta"><path codeLine="174" d="M1368.33,389.6994 C1368.33,453.8794 1368.33,519.6094 1368.33,519.6094 C1368.33,519.6094 1370.99,519.6094 1365.77,519.6094 " fill="none" id="Usuario-to-EstadoCuenta" style="stroke:#000000;stroke-width:1.0;stroke-dasharray:7.0,7.0;"/><polygon fill="#000000" points="1359.77,519.6094,1368.77,523.6094,1364.77,519.6094,1368.77,515.6094,1359.77,519.6094" style="stroke:#000000;stroke-width:1.0;"/></g><!--link Anuncio to EstadoProducto--><g id="link_Anuncio_EstadoProducto"><path codeLine="176" d="M2361,636.6094 C2567.15,636.6094 2974.67,636.6094 2974.67,636.6094 C2974.67,636.6094 2974.67,683.5794 2974.67,731.0694 " fill="none" id="Anuncio-to-EstadoProducto" style="stroke:#000000;stroke-width:1.0;stroke-dasharray:7.0,7.0;"/><polygon fill="#000000" points="2974.67,737.0694,2978.67,728.0694,2974.67,732.0694,2970.67,728.0694,2974.67,737.0694" style="stroke:#000000;stroke-width:1.0;"/></g><!--link Anuncio to EstadoAnuncio--><g id="link_Anuncio_EstadoAnuncio"><path codeLine="177" d="M2361.07,661.6094 C2505.78,661.6094 2733.75,661.6094 2733.75,661.6094 C2733.75,661.6094 2733.75,693.4394 2733.75,730.9794 " fill="none" id="Anuncio-to-EstadoAnuncio" style="stroke:#000000;stroke-width:1.0;stroke-dasharray:7.0,7.0;"/><polygon fill="#000000" points="2733.75,736.9794,2737.75,727.9794,2733.75,731.9794,2729.75,727.9794,2733.75,736.9794" style="stroke:#000000;stroke-width:1.0;"/></g><!--link Categoria to EstadoCategoria--><g id="link_Categoria_EstadoCategoria"><path codeLine="179" d="M2898.5,327.8994 C2898.5,382.9194 2898.5,457.7294 2898.5,508.4694 " fill="none" id="Categoria-to-EstadoCategoria" style="stroke:#000000;stroke-width:1.0;stroke-dasharray:7.0,7.0;"/><polygon fill="#000000" points="2898.5,514.4694,2902.5,505.4694,2898.5,509.4694,2894.5,505.4694,2898.5,514.4694" style="stroke:#000000;stroke-width:1.0;"/></g><!--link Mensaje to EstadoMensaje--><g id="link_Mensaje_EstadoMensaje"><path codeLine="181" d="M2057.5,861.2994 C2057.5,892.5594 2057.5,926.7094 2057.5,958.9394 " fill="none" id="Mensaje-to-EstadoMensaje" style="stroke:#000000;stroke-width:1.0;stroke-dasharray:7.0,7.0;"/><polygon fill="#000000" points="2057.5,964.9394,2061.5,955.9394,2057.5,959.9394,2053.5,955.9394,2057.5,964.9394" style="stroke:#000000;stroke-width:1.0;"/></g><!--link Valoracion to TipoValoracion--><g id="link_Valoracion_TipoValoracion"><path codeLine="183" d="M1548.5,869.8094 C1548.5,902.7594 1548.5,937.2194 1548.5,967.9994 " fill="none" id="Valoracion-to-TipoValoracion" style="stroke:#000000;stroke-width:1.0;stroke-dasharray:7.0,7.0;"/><polygon fill="#000000" points="1548.5,973.9994,1552.5,964.9994,1548.5,968.9994,1544.5,964.9994,1548.5,973.9994" style="stroke:#000000;stroke-width:1.0;"/></g><!--link Transaccion to EstadoTransaccion--><g id="link_Transaccion_EstadoTransaccion"><path codeLine="185" d="M852.75,878.6594 C852.75,900.6394 852.75,919.1094 852.75,941.4794 " fill="none" id="Transaccion-to-EstadoTransaccion" style="stroke:#000000;stroke-width:1.0;stroke-dasharray:7.0,7.0;"/><polygon fill="#000000" points="852.75,947.4794,856.75,938.4794,852.75,942.4794,848.75,938.4794,852.75,947.4794" style="stroke:#000000;stroke-width:1.0;"/></g><!--link Transaccion to MetodoEntrega--><g id="link_Transaccion_MetodoEntrega"><path codeLine="186" d="M1008,878.6594 C1008,909.7694 1008,939.8594 1008,967.9294 " fill="none" id="Transaccion-to-MetodoEntrega" style="stroke:#000000;stroke-width:1.0;stroke-dasharray:7.0,7.0;"/><polygon fill="#000000" points="1008,973.9294,1012,964.9294,1008,968.9294,1004,964.9294,1008,973.9294" style="stroke:#000000;stroke-width:1.0;"/></g><!--link Reporte to TipoReporte--><g id="link_Reporte_TipoReporte"><path codeLine="188" d="M105.75,887.7994 C105.75,907.2794 105.75,922.1394 105.75,941.4394 " fill="none" id="Reporte-to-TipoReporte" style="stroke:#000000;stroke-width:1.0;stroke-dasharray:7.0,7.0;"/><polygon fill="#000000" points="105.75,947.4394,109.75,938.4394,105.75,942.4394,101.75,938.4394,105.75,947.4394" style="stroke:#000000;stroke-width:1.0;"/></g><!--link Reporte to EstadoReporte--><g id="link_Reporte_EstadoReporte"><path codeLine="189" d="M218.5,887.7994 C218.5,910.3294 218.5,928.7094 218.5,950.3794 " fill="none" id="Reporte-to-EstadoReporte" style="stroke:#000000;stroke-width:1.0;stroke-dasharray:7.0,7.0;"/><polygon fill="#000000" points="218.5,956.3794,222.5,947.3794,218.5,951.3794,214.5,947.3794,218.5,956.3794" style="stroke:#000000;stroke-width:1.0;"/></g><!--link Reporte to AccionReporte--><g id="link_Reporte_AccionReporte"><path codeLine="190" d="M331.25,887.7994 C331.25,910.3294 331.25,928.7094 331.25,950.3794 " fill="none" id="Reporte-to-AccionReporte" style="stroke:#000000;stroke-width:1.0;stroke-dasharray:7.0,7.0;"/><polygon fill="#000000" points="331.25,956.3794,335.25,947.3794,331.25,951.3794,327.25,947.3794,331.25,956.3794" style="stroke:#000000;stroke-width:1.0;"/></g><!--link Usuario to Anuncio--><g id="link_Usuario_Anuncio"><path codeLine="197" d="M1484.5,389.6394 C1484.5,440.2894 1484.5,487.6094 1484.5,487.6094 C1484.5,487.6094 1914.79,487.6094 2127.83,487.6094 " fill="none" id="Usuario-Anuncio" style="stroke:#000000;stroke-width:1.0;"/><polygon fill="#000000" points="1711.123,479.5379,1702.6235,475.2707,1701.7386,481.0816,1711.123,479.5379" style="stroke:#000000;stroke-width:1.0;"/><text fill="#000000" font-family="sans-serif" font-size="13" lengthAdjust="spacing" textLength="41" x="1715.18" y="484.1045">publica</text><text fill="#000000" font-family="sans-serif" font-size="13" lengthAdjust="spacing" textLength="7" x="1478.2227" y="410.6128">1</text><text fill="#000000" font-family="sans-serif" font-size="13" lengthAdjust="spacing" textLength="5" x="2114.8233" y="479.6038">*</text></g><!--reverse link Anuncio to Usuario--><g id="link_Anuncio_Usuario"><path codeLine="227" d="M2115.99,468.6094 C1913.32,468.6094 1529.25,468.6094 1529.25,468.6094 C1529.25,468.6094 1529.25,431.8494 1529.25,389.8494 " fill="none" id="Anuncio-backto-Usuario" style="stroke:#000000;stroke-width:1.0;"/><polygon fill="none" points="2127.99,468.6094,2121.99,464.6094,2115.99,468.6094,2121.99,472.6094,2127.99,468.6094" style="stroke:#000000;stroke-width:1.0;"/><text fill="#000000" font-family="sans-serif" font-size="13" lengthAdjust="spacing" textLength="60" x="1728.24" y="465.1045">propietario</text><text fill="#000000" font-family="sans-serif" font-size="13" lengthAdjust="spacing" textLength="7" x="2112.9268" y="459.3272">1</text><text fill="#000000" font-family="sans-serif" font-size="13" lengthAdjust="spacing" textLength="7" x="1525.5598" y="410.8349">1</text></g><!--link Categoria to Anuncio--><g id="link_Categoria_Anuncio"><path codeLine="200" d="M2818.75,327.6394 C2818.75,388.5094 2818.75,474.6094 2818.75,474.6094 C2818.75,474.6094 2528.9,474.6094 2361.05,474.6094 " fill="none" id="Categoria-Anuncio" style="stroke:#000000;stroke-width:1.0;"/><polygon fill="#000000" points="2601.6294,467.3138,2611.1399,467.3467,2609.3429,461.7502,2601.6294,467.3138" style="stroke:#000000;stroke-width:1.0;"/><text fill="#000000" font-family="sans-serif" font-size="13" lengthAdjust="spacing" textLength="47" x="2615.39" y="471.1045">clasifica</text><text fill="#000000" font-family="sans-serif" font-size="13" lengthAdjust="spacing" textLength="7" x="2801.0836" y="349.7172">1</text><text fill="#000000" font-family="sans-serif" font-size="13" lengthAdjust="spacing" textLength="5" x="2369.0487" y="465.7303">*</text></g><!--link Anuncio to Fotografia--><g id="link_Anuncio_Fotografia"><path codeLine="203" d="M2361.33,648.6094 C2545.72,648.6094 2883.5,648.6094 2883.5,648.6094 C2883.5,648.6094 2883.5,704.9694 2883.5,751.2094 " fill="none" id="Anuncio-Fotografia" style="stroke:#000000;stroke-width:1.0;"/><polygon fill="#000000" points="2619.6162,640.7492,2611.3074,636.1215,2610.1742,641.889,2619.6162,640.7492" style="stroke:#000000;stroke-width:1.0;"/><text fill="#000000" font-family="sans-serif" font-size="13" lengthAdjust="spacing" textLength="49" x="2623.71" y="645.1045">contiene</text><text fill="#000000" font-family="sans-serif" font-size="13" lengthAdjust="spacing" textLength="7" x="2369.0386" y="651.1737">1</text><text fill="#000000" font-family="sans-serif" font-size="13" lengthAdjust="spacing" textLength="22" x="2860.2281" y="740.9064">1..5</text></g><!--link Usuario to Mensaje--><g id="link_Usuario_Mensaje"><path codeLine="206" d="M1574.09,369.6094 C1726.96,369.6094 1991.83,369.6094 1991.83,369.6094 C1991.83,369.6094 1991.83,644.1894 1991.83,760.0194 " fill="none" id="Usuario-Mensaje" style="stroke:#000000;stroke-width:1.0;"/><polygon fill="#000000" points="1939.823,364.1992,1935.2214,355.876,1931.2079,360.1703,1939.823,364.1992" style="stroke:#000000;stroke-width:1.0;"/><text fill="#000000" font-family="sans-serif" font-size="13" lengthAdjust="spacing" textLength="32" x="1945.17" y="366.1045">emite</text><text fill="#000000" font-family="sans-serif" font-size="13" lengthAdjust="spacing" textLength="7" x="1582.1013" y="373.958">1</text><text fill="#000000" font-family="sans-serif" font-size="13" lengthAdjust="spacing" textLength="5" x="1977.2436" y="749.3121">*</text></g><!--link Usuario to Mensaje--><g id="link_Usuario_Mensaje"><path codeLine="207" d="M1574.07,348.6094 C1738.89,348.6094 2038.67,348.6094 2038.67,348.6094 C2038.67,348.6094 2038.67,639.8294 2038.67,759.8494 " fill="none" id="Usuario-Mensaje-1" style="stroke:#000000;stroke-width:1.0;"/><polygon fill="#000000" points="1963.246,336.4712,1968.071,344.6669,1971.9669,340.2656,1963.246,336.4712" style="stroke:#000000;stroke-width:1.0;"/><text fill="#000000" font-family="sans-serif" font-size="13" lengthAdjust="spacing" textLength="35" x="1975.99" y="345.1045">recibe</text><text fill="#000000" font-family="sans-serif" font-size="13" lengthAdjust="spacing" textLength="7" x="1582.0798" y="351.4158">1</text><text fill="#000000" font-family="sans-serif" font-size="13" lengthAdjust="spacing" textLength="5" x="2030.6705" y="749.1182">*</text></g><!--link Anuncio to Mensaje--><g id="link_Anuncio_Mensaje"><path codeLine="208" d="M2159.5,673.7294 C2159.5,703.9294 2159.5,735.1194 2159.5,760.0794 " fill="none" id="Anuncio-Mensaje" style="stroke:#000000;stroke-width:1.0;"/><polygon fill="#000000" points="2099.5,713.0752,2102.4389,704.0301,2096.5611,704.0301,2099.5,713.0752" style="stroke:#000000;stroke-width:1.0;"/><text fill="#000000" font-family="sans-serif" font-size="13" lengthAdjust="spacing" textLength="50" x="2108.5" y="713.3945">contexto</text><text fill="#000000" font-family="sans-serif" font-size="13" lengthAdjust="spacing" textLength="22" x="2131.05" y="695.3037">0..1</text><text fill="#000000" font-family="sans-serif" font-size="13" lengthAdjust="spacing" textLength="5" x="2168.4922" y="749.3805">*</text></g><!--link Usuario to Valoracion--><g id="link_Usuario_Valoracion"><path codeLine="211" d="M1389.67,389.6694 C1389.67,535.0594 1389.67,759.6094 1389.67,759.6094 C1389.67,759.6094 1432.22,759.6094 1473.27,759.6094 " fill="none" id="Usuario-Valoracion" style="stroke:#000000;stroke-width:1.0;"/><polygon fill="#000000" points="1395.7721,612.4922,1396.645,603.0218,1390.9117,604.3174,1395.7721,612.4922" style="stroke:#000000;stroke-width:1.0;"/><text fill="#000000" font-family="sans-serif" font-size="13" lengthAdjust="spacing" textLength="32" x="1403.67" y="612.9345">emite</text><text fill="#000000" font-family="sans-serif" font-size="13" lengthAdjust="spacing" textLength="7" x="1385.315" y="410.6445">1</text><text fill="#000000" font-family="sans-serif" font-size="13" lengthAdjust="spacing" textLength="5" x="1460.6185" y="751.2924">*</text></g><!--link Usuario to Valoracion--><g id="link_Usuario_Valoracion"><path codeLine="212" d="M1384.33,389.7994 C1384.33,537.2094 1384.33,766.6094 1384.33,766.6094 C1384.33,766.6094 1429.99,766.6094 1473.14,766.6094 " fill="none" id="Usuario-Valoracion-1" style="stroke:#000000;stroke-width:1.0;"/><polygon fill="#000000" points="1338.183,626.9185,1337.3974,636.3966,1343.1185,635.0482,1338.183,626.9185" style="stroke:#000000;stroke-width:1.0;"/><text fill="#000000" font-family="sans-serif" font-size="13" lengthAdjust="spacing" textLength="35" x="1348.33" y="637.1045">recibe</text><text fill="#000000" font-family="sans-serif" font-size="13" lengthAdjust="spacing" textLength="7" x="1372.2616" y="410.782">1</text><text fill="#000000" font-family="sans-serif" font-size="13" lengthAdjust="spacing" textLength="5" x="1460.4757" y="776.5565">*</text></g><!--link Anuncio to Valoracion--><g id="link_Anuncio_Valoracion"><path codeLine="213" d="M2149,673.6294 C2149,717.0894 2149,756.6094 2149,756.6094 C2149,756.6094 1784.77,756.6094 1623.64,756.6094 " fill="none" id="Anuncio-Valoracion" style="stroke:#000000;stroke-width:1.0;"/><polygon fill="#000000" points="1880.8712,748.5652,1890.2641,750.057,1889.347,744.2511,1880.8712,748.5652" style="stroke:#000000;stroke-width:1.0;"/><text fill="#000000" font-family="sans-serif" font-size="13" lengthAdjust="spacing" textLength="32" x="1894.81" y="753.1045">sobre</text><text fill="#000000" font-family="sans-serif" font-size="13" lengthAdjust="spacing" textLength="5" x="2121.3375" y="695.2089">*</text><text fill="#000000" font-family="sans-serif" font-size="13" lengthAdjust="spacing" textLength="5" x="1631.6466" y="747.7063">*</text></g><!--link Anuncio to Transaccion--><g id="link_Anuncio_Transaccion"><path codeLine="216" d="M2138.5,673.6894 C2138.5,713.9494 2138.5,749.6094 2138.5,749.6094 C2138.5,749.6094 1382.64,749.6094 1065.24,749.6094 " fill="none" id="Anuncio-Transaccion" style="stroke:#000000;stroke-width:1.0;"/><polygon fill="#000000" points="1639.8425,741.138,1649.0724,743.4313,1648.6576,737.5681,1639.8425,741.138" style="stroke:#000000;stroke-width:1.0;"/><text fill="#000000" font-family="sans-serif" font-size="13" lengthAdjust="spacing" textLength="38" x="1653.83" y="746.1045">origina</text><text fill="#000000" font-family="sans-serif" font-size="13" lengthAdjust="spacing" textLength="7" x="2124.143" y="695.261">1</text><text fill="#000000" font-family="sans-serif" font-size="13" lengthAdjust="spacing" textLength="22" x="1072.9094" y="743.5545">0..1</text></g><!--link Transaccion to Usuario--><g id="link_Transaccion_Usuario"><path codeLine="217" d="M1065.01,745.6094 C1196.1,745.6094 1373.67,745.6094 1373.67,745.6094 C1373.67,745.6094 1373.67,531.2194 1373.67,389.8994 " fill="none" id="Transaccion-Usuario" style="stroke:#000000;stroke-width:1.0;"/><polygon fill="#000000" points="1323.9469,709.4887,1315.7992,714.3942,1320.2386,718.2465,1323.9469,709.4887" style="stroke:#000000;stroke-width:1.0;"/><text fill="#000000" font-family="sans-serif" font-size="13" lengthAdjust="spacing" textLength="43" x="1329.67" y="718.5845">compra</text><text fill="#000000" font-family="sans-serif" font-size="13" lengthAdjust="spacing" textLength="7" x="1072.6673" y="735.1368">1</text><text fill="#000000" font-family="sans-serif" font-size="13" lengthAdjust="spacing" textLength="7" x="1360.9853" y="410.8878">1</text></g><!--link Transaccion to Usuario--><g id="link_Transaccion_Usuario"><path codeLine="218" d="M1065.11,747.6094 C1197.92,747.6094 1379,747.6094 1379,747.6094 C1379,747.6094 1379,531.6994 1379,389.7894 " fill="none" id="Transaccion-Usuario-1" style="stroke:#000000;stroke-width:1.0;"/><polygon fill="#000000" points="1339.2973,731.0664,1331.1231,735.9279,1335.5418,739.8041,1339.2973,731.0664" style="stroke:#000000;stroke-width:1.0;"/><text fill="#000000" font-family="sans-serif" font-size="13" lengthAdjust="spacing" textLength="33" x="1345" y="740.1445">vende</text><text fill="#000000" font-family="sans-serif" font-size="13" lengthAdjust="spacing" textLength="7" x="1072.827" y="758.105">1</text><text fill="#000000" font-family="sans-serif" font-size="13" lengthAdjust="spacing" textLength="7" x="1366.6234" y="410.7715">1</text></g><!--link Usuario to Reporte--><g id="link_Usuario_Reporte"><path codeLine="221" d="M1362.97,293.6094 C1067.31,293.6094 252.38,293.6094 252.38,293.6094 C252.38,293.6094 252.38,589.3694 252.38,733.4894 " fill="none" id="Usuario-Reporte" style="stroke:#000000;stroke-width:1.0;"/><polygon fill="#000000" points="533.0814,286.6264,542.5731,286.028,540.4086,280.5632,533.0814,286.6264" style="stroke:#000000;stroke-width:1.0;"/><text fill="#000000" font-family="sans-serif" font-size="13" lengthAdjust="spacing" textLength="40" x="546.73" y="290.1045">reporta</text><text fill="#000000" font-family="sans-serif" font-size="13" lengthAdjust="spacing" textLength="7" x="1347.9631" y="292.3767">1</text><text fill="#000000" font-family="sans-serif" font-size="13" lengthAdjust="spacing" textLength="5" x="250.469" y="722.6397">*</text></g><!--link Usuario to Reporte--><g id="link_Usuario_Reporte"><path codeLine="222" d="M1363,196.6094 C1049.48,196.6094 145.12,196.6094 145.12,196.6094 C145.12,196.6094 145.12,568.5594 145.12,733.4694 " fill="none" id="Usuario-Reporte-1" style="stroke:#000000;stroke-width:1.0;"/><polygon fill="#000000" points="407.2052,185.7683,397.7431,186.7276,400.114,192.106,407.2052,185.7683" style="stroke:#000000;stroke-width:1.0;"/><text fill="#000000" font-family="sans-serif" font-size="13" lengthAdjust="spacing" textLength="73" x="411.63" y="193.1045">esReportado</text><text fill="#000000" font-family="sans-serif" font-size="13" lengthAdjust="spacing" textLength="7" x="1347.9953" y="188.2533">1</text><text fill="#000000" font-family="sans-serif" font-size="13" lengthAdjust="spacing" textLength="5" x="132.8877" y="722.8827">*</text></g><!--link Usuario to Reporte--><g id="link_Usuario_Reporte"><path codeLine="224" d="M1362.97,244.6094 C1058.27,244.6094 198.75,244.6094 198.75,244.6094 C198.75,244.6094 198.75,578.5094 198.75,733.3894 " fill="none" id="Usuario-Reporte-2" style="stroke:#000000;stroke-width:1.0;"/><polygon fill="#000000" points="391.8598,237.7207,401.3374,236.9291,399.062,231.5095,391.8598,237.7207" style="stroke:#000000;stroke-width:1.0;"/><text fill="#000000" font-family="sans-serif" font-size="13" lengthAdjust="spacing" textLength="130" x="405.47" y="241.1045">gestionadoPor (admin)</text><text fill="#000000" font-family="sans-serif" font-size="13" lengthAdjust="spacing" textLength="22" x="1333.1406" y="239.9763">0..1</text><text fill="#000000" font-family="sans-serif" font-size="13" lengthAdjust="spacing" textLength="5" x="191.6293" y="722.7951">*</text></g><!--link Anuncio to Reporte--><g id="link_Anuncio_Reporte"><path codeLine="223" d="M2127.76,645.6094 C1712.6,645.6094 332.33,645.6094 332.33,645.6094 C332.33,645.6094 332.33,690.4794 332.33,733.4194 " fill="none" id="Anuncio-Reporte" style="stroke:#000000;stroke-width:1.0;"/><polygon fill="#000000" points="1119.146,637.0294,1128.3238,639.523,1128.0367,633.6521,1119.146,637.0294" style="stroke:#000000;stroke-width:1.0;"/><text fill="#000000" font-family="sans-serif" font-size="13" lengthAdjust="spacing" textLength="52" x="1133.14" y="642.1045">esObjeto</text><text fill="#000000" font-family="sans-serif" font-size="13" lengthAdjust="spacing" textLength="22" x="2097.9758" y="647.7436">0..1</text><text fill="#000000" font-family="sans-serif" font-size="13" lengthAdjust="spacing" textLength="5" x="337.9411" y="722.828">*</text></g><!--link Categoria to GMN69--><g id="link_Categoria_GMN69"><path d="M2981.83,327.8994 C2981.83,413.5194 2981.83,561.6094 2981.83,561.6094 C2981.83,561.6094 2989.81,561.6094 3002.43,561.6094 " fill="none" id="Categoria-GMN69" style="stroke:#000000;stroke-width:1.0;stroke-dasharray:7.0,7.0;"/></g><!--link R_AutoVal to Valoracion--><g id="link_R_AutoVal_Valoracion"><path codeLine="290" d="M1059.8,561.6094 C1067.62,561.6094 1072.5,561.6094 1072.5,561.6094 C1072.5,561.6094 1072.5,774.6094 1072.5,774.6094 C1072.5,774.6094 1339.21,774.6094 1473.34,774.6094 " fill="none" id="R_AutoVal-Valoracion" style="stroke:#000000;stroke-width:1.0;stroke-dasharray:7.0,7.0;"/></g><!--SRC=[ZLZ1RYCt4hthAxYwnCwEPSkptYIQs816rWG6RDcGx0aMWy62wgObJjXDXUnMF1dadlsC0Bl7EGIvxTL_aY_PLsIpcorBnivXJB79ucFLgySY2raemSubNnYUSPOADbBS2ilkhYxP0PijkH5tiqxd2pQsXLJQChrAfCwvmfWLDvmfiP1pgMJAquxzGURKcR44LkomA8oSbuMuI7G-apyBTXGDKJ8NnSULODeKIxqvbttgCFQQ9pyiZ2xpTAILDkpxfIm4-eV6w9zyrsk5CJHKcrIOkEyNe3xTzeysCxcx6a-7vzSpjZT-A0n__9ngkxzhGaVaPSQcMjtPaXkfsRVVZj4Z34_rsPc3AcnHffBd3XzFCvbBMz1tGq3SV7WGlqUbo0k-nG9F2hdcQDZIhaIUmgDaLqdOucYtpTmOdPP9iGrANegrnjz4PtfIjUTOrKzqAubLmUUAe9BBfuB-tmGwpCiysRhNkJP-PnLeihbsYAa5jA4pWDURFk25M6WZdtL3PMTpurSYj_o3s1Q2V2tz1fNmK9wkVojN-Yq7IJYnU8iHSjf8PwkmGVhz5diJJoDvQpYW93iCYNo2FIRIBUGCvVTak6gIJMz-fKJ1NQmJdYT2nR6-4eLEzJWlZ5ZmhOlS26EHZivVXJ09p-QolLr45ncspM7tXfSfaK3Vmwa-P7R5CwA5qKkaTLhnY2pmJ8Avcw7SRTrnMFY44FbKhANrdZ32ba8LP3eLq9f2Pd68XiwZk-toT2tm1ToCyiDKR6tIHr3qnCEgLDPJUwSOZ2w7i_6CtKml9gEBc-4bsdkNCbj9_emYU94AUa2u_fhhR6u4esQ2317w8iVUYjBhPTMFK49V7t_d8mdtfvov_dkUb0hkz8DAXDIrZ5Pi4EaEzObOHGOjKQ7FwvhSLm9wvAsBP8aaNv0YwMf1NMXGvrvwN8X3OgHJzefGwFybx38eWTibxKZfpLdkzye86kPHNZHqP0tkMhO66pfMuxmfvqec8MjytvqYZbpfLDvNdoAJ0TsWhLiqe9nNmqC6kGteWgkt4XvLycVt5KTPizaty0mEmtlupkstD8h-qF6IDzuSSHFCuTpCzTNho4GZRvkyY3n6FoNu47kdYMUmq1WDklSfy4ZaICy6qHZg5n4a31-qPREn5wcWCxagywBqlz_rUxsJztwTZ8XbPBIGtpM41RRRSjeOZwNnKptp8fT9REcDZECOpnaybTY6O9Z6NKoobZeEschPW0bIyYa03ns3M1ytmdEbwGoBqyVFQV0sLbfA6CsmMfK1kj_4hSuevmSR8lVkgDVhltzMfARZo-7eude2SHfTJw82vfaY1x0iKu-VSu6_AIgn3pndS0cxLmGG1HnYBW38aX2ZzbFS5L-28Vr9Ypj1ttgzirY6ukwM07L2CZPVwWH_-YbaQgT9cCXYdGATmENcOs1p9s8nVTtWOoVcL3CxPjNcY3Q7EY52mNW8SjpV3d_yfHNbPu8xd5sFBa9unvFRwRWwb7OUFr-mMYSV_yYfRkVUcROEJhVVPGS7hFjbbpKIkVAps1cPe5A_KbGo0fGeGPpN7p_pA2XRBILXihSLP1CpRGIdZdgmGTBIZKLsGELGWK91U4DLQ0a2sxEQbBFCWxdzRRjhf4vak1_0pBE3I4FcA2mQQ9HzMmOwaNt0MULmDRJ2SI687wpqozWNkCiiN1hn22ih6cfHVRC5LCJUPy6tnZt5_-NsWTvv3dpDSegppDSaJBYx7TTRO1zPVsVCl7_Q-WnYBA33C1_trr7krgNHmDMFvlyQIPU82d6LDBRQHV3fnqCTC6zpLAF9nhNuTdysmuJrRJfyTp4Y7dqz_o0S8sghEuOkgAvrWRz1Mksv6-6-tzfTH177U_60cmwdazPn7RNtIWftwhP2eP_uAnwvMrqcrxV36Vi7Zf3PxVHYv6LcfxBa6YWGt6M1Qq5OgpFjJNf7VNR8NEDuq3bWsshSL82PArUUYqGOv4EgwIgiGRfutFhnDuNgfGSpCrpP6ngYj7UYWjlu8IzXfl0_Wd3bBt2LjUulfIVvBGTtVTMRzt23I1djO7CVuQXny5-6VVmjD4v2u- -XyTKWOElwwsoNqGK6bsOaFvi__jV-M0gaF6sXAedVzOaBHqVlNx2uCdvtxBkFtjFOOLdeWt159ecmx9iZbZhPjAY7t0TwJA7199RiFbPMFIUfAKYM8JlPusyFx0IrPt9Oli10a-6J3TvrsAgodnksgvB6TX8gId1TSFf0iwfA_izVVsLxG7y2yCno1SGSd9jN1uOZzIkcMQlQForCANP78XpTpijVavU1HfXW4kx1hYZg0pPN6axMT9o46-fXwdPewHTYOGz5hdWYRCsa5JUOB5Vq4WCzJX91TJiejvHAxqOL5GtJtfk84D_KF72nAc8XxJQtzwuB5mktht2SLhm6G-E9ks74bKcpl2ymMij1ttuifO0oqcE2HE3zedEfS6mRhXpNLFs-O0RrqNrmnhhLQqrtDvAwd06A_j70COaIW1Rvyr__PbyTBr-XyP-NbT8AgZ2HuZc51qiW0_ppZGbYHuXEQhYf7-OlwyxiAzO_eYv_Pz_gfxakG0-2rrI73c2V08wCuEOGD2xeJ_KkWFC3iSD5-hJrA4TW9fereoHRyezr4LMzQrcgG9IkdwBC_ZEGOgdi7rVyySYctzsS7rvUtvn_TtxkwWfBmkRVKqWia6rBB3QSZguFRg1ixcd0yJvwC70SVx8H6a6AcqaB2-8XKQLro34vQnBhq9r76pwbKnPcP59LDPmKmB_j-is1yDD_ac8XFJhrM5WPTCQqe65_EOKDUav46tdMf56qJcq2DN6SQD4QuRI_b5G4RIoLQ5nJzkg281MAOV6iFZMg4g7k3hMYu-dB5f3sEeIdBiuRCESuWzOTzp-l85InxMs-hfmolbxiHRkERj6kJeEIs_qM16UNLWvy-Hy0]--></g></svg>