<?xml version="1.0" encoding="us-ascii" standalone="no"?><svg xmlns="http://www.w3.org/2000/svg" xmlns:xlink="http://www.w3.org/1999/xlink" contentStyleType="text/css" height="328px" preserveAspectRatio="none" style="width:600px;height:328px;background:#FFFFFF;" version="1.1" viewBox="0 0 600 328" width="600px" zoomAndPan="magnify"><defs/><g><text fill="#000000" font-family="Helvetica" font-size="14" font-weight="bold" lengthAdjust="spacing" textLength="250" x="168.125" y="24.5332">Escenario 2 - Reporte y moderacion</text><g id="elem_Reportante"><rect fill="#FFFFFF" height="37.6094" style="stroke:#000000;stroke-width:0.5;" width="85" x="42.25" y="45.6094"/><text fill="#000000" font-family="Helvetica" font-size="14" lengthAdjust="spacing" textLength="71" x="49.25" y="62.1426">Reportante</text><line style="stroke:#000000;stroke-width:0.5;" x1="43.25" x2="126.25" y1="67.2188" y2="67.2188"/></g><g id="elem_Infractor"><rect fill="#FFFFFF" height="37.6094" style="stroke:#000000;stroke-width:0.5;" width="66" x="13.75" y="154.1094"/><text fill="#000000" font-family="Helvetica" font-size="14" lengthAdjust="spacing" textLength="52" x="20.75" y="170.6426">Infractor</text><line style="stroke:#000000;stroke-width:0.5;" x1="14.75" x2="78.75" y1="175.7188" y2="175.7188"/></g><g id="elem_Admin1"><rect fill="#FFFFFF" height="37.6094" style="stroke:#000000;stroke-width:0.5;" width="61" x="162.25" y="45.6094"/><text fill="#000000" font-family="Helvetica" font-size="14" lengthAdjust="spacing" textLength="47" x="169.25" y="62.1426">Admin1</text><line style="stroke:#000000;stroke-width:0.5;" x1="163.25" x2="222.25" y1="67.2188" y2="67.2188"/></g><g id="elem_Anuncio2"><rect fill="#FFFFFF" height="37.6094" style="stroke:#000000;stroke-width:0.5;" width="73" x="56.25" y="273.1094"/><text fill="#000000" font-family="Helvetica" font-size="14" lengthAdjust="spacing" textLength="59" x="63.25" y="289.6426">Anuncio2</text><line style="stroke:#000000;stroke-width:0.5;" x1="57.25" x2="128.25" y1="294.7188" y2="294.7188"/></g><g id="elem_Rep1"><rect fill="#FFFFFF" height="37.6094" style="stroke:#000000;stroke-width:0.5;" width="48" x="114.75" y="154.1094"/><text fill="#000000" font-family="Helvetica" font-size="14" lengthAdjust="spacing" textLength="34" x="121.75" y="170.6426">Rep1</text><line style="stroke:#000000;stroke-width:0.5;" x1="115.75" x2="161.75" y1="175.7188" y2="175.7188"/></g><g id="elem_GMN11"><path d="M198.25,143.6094 L198.25,202.6641 L593.25,202.6641 L593.25,153.6094 L583.25,143.6094 L198.25,143.6094 " fill="#FEFFDD" style="stroke:#181818;stroke-width:0.5;"/><path d="M583.25,143.6094 L583.25,153.6094 L593.25,153.6094 L583.25,143.6094 " fill="#FEFFDD" style="stroke:#181818;stroke-width:1.0;"/><text fill="#000000" font-family="Helvetica" font-size="13" lengthAdjust="spacing" textLength="205" x="204.25" y="162.1045">estado = "en_revision" -&gt; "resuelto"</text><text fill="#000000" font-family="Helvetica" font-size="13" lengthAdjust="spacing" textLength="99" x="204.25" y="178.4561">tipo = "prohibido"</text><text fill="#000000" font-family="Helvetica" font-size="13" lengthAdjust="spacing" textLength="374" x="204.25" y="194.8076">accionTomada = "eliminar_anuncio" | "suspender" | "advertencia"</text></g><g id="elem_GMN14"><path d="M259.75,262.6094 L259.75,321.6641 L531.75,321.6641 L531.75,272.6094 L521.75,262.6094 L259.75,262.6094 " fill="#FEFFDD" style="stroke:#181818;stroke-width:0.5;"/><path d="M521.75,262.6094 L521.75,272.6094 L531.75,272.6094 L521.75,262.6094 " fill="#FEFFDD" style="stroke:#181818;stroke-width:1.0;"/><text fill="#000000" font-family="Helvetica" font-size="13" lengthAdjust="spacing" textLength="86" x="265.75" y="281.1045">Postcondicion:</text><text fill="#000000" font-family="Helvetica" font-size="13" lengthAdjust="spacing" textLength="250" x="265.75" y="297.4561">- Anuncio2.estado = "inactivo" | "eliminado"</text><text fill="#000000" font-family="Helvetica" font-size="13" lengthAdjust="spacing" textLength="251" x="265.75" y="313.8076">- Rep1.fechaResolucion registrada (&lt;= 72h)</text></g><!--link Reportante to Rep1--><g id="link_Reportante_Rep1"><path codeLine="16" d="M121,83.7594 C121,103.4694 121,134.0094 121,153.7894 " fill="none" id="Reportante-Rep1" style="stroke:#000000;stroke-width:1.0;"/><text fill="#000000" font-family="Helvetica" font-size="13" lengthAdjust="spacing" textLength="25" x="95" y="115.2645">crea</text></g><!--link Rep1 to Anuncio2--><g id="link_Rep1_Anuncio2"><path codeLine="17" d="M122,192.2294 C122,214.4394 122,250.8494 122,273.0394 " fill="none" id="Rep1-Anuncio2" style="stroke:#000000;stroke-width:1.0;"/><text fill="#000000" font-family="Helvetica" font-size="13" lengthAdjust="spacing" textLength="35" x="86" y="229.1245">objeto</text></g><!--link Infractor to Anuncio2--><g id="link_Infractor_Anuncio2"><path codeLine="18" d="M68,192.2294 C68,214.4394 68,250.8494 68,273.0394 " fill="none" id="Infractor-Anuncio2" style="stroke:#000000;stroke-width:1.0;"/><text fill="#000000" font-family="Helvetica" font-size="13" lengthAdjust="spacing" textLength="60" x="7" y="229.1245">propietario</text></g><!--link Admin1 to Rep1--><g id="link_Admin1_Rep1"><path codeLine="19" d="M180.5,83.9794 C180.5,113.8194 180.5,167.6094 180.5,167.6094 C180.5,167.6094 172.22,167.6094 163.04,167.6094 " fill="none" id="Admin1-Rep1" style="stroke:#000000;stroke-width:1.0;"/><text fill="#000000" font-family="Helvetica" font-size="13" lengthAdjust="spacing" textLength="49" x="130.5" y="131.0245">gestiona</text></g><!--link Rep1 to GMN11--><g id="link_Rep1_GMN11"><path d="M162.93,179.6094 C172.61,179.6094 184.7,179.6094 198.24,179.6094 " fill="none" id="Rep1-GMN11" style="stroke:#000000;stroke-width:1.0;stroke-dasharray:7.0,7.0;"/></g><!--link GMN11 to GMN14--><g id="link_GMN11_GMN14"><path d="M395.75,202.8294 C395.75,221.0094 395.75,244.1694 395.75,262.3494 " fill="none" id="GMN11-GMN14" style="stroke:#000000;stroke-width:1.0;stroke-dasharray:7.0,7.0;"/></g><!--SRC=[RLB1Rjim3BthAmYVjaEA9PS1nJeW7Jgibs5e1-nOC39jivL5Ww9JTDZ7ZuxJnEXsanwVtdiaPMo9uAP4ogWii84LtD4WQWGlq4jDYf4bX_B4UK357cB2KhPcohlHw3PAlkVV11yMbCIPx6KWS9rE5eMQ6XoJVPLitx4d-4PfJyOH5npPFLAqQr7t_Y995AuJngT_6GwsAcEkPzQlZeqMhAsgFFzVuBx3Mfuvjz1WAXJ2h7Zi7BFh797RtFW0JFGLsDOzv_NfbiViuzai1DOXd6LWTHZd6YuXAc4ud1rxVUVuzD8ad8pUb0ULWSccvOJPUw7PKZ5V3eQGnSsKsyv0cZc6rxnBk8AAyeFIdejJArXzXagfZ9HCgc0y72Xkq_6EQuSmJWl_AJtMU7YTs6rH7t1ELS4VgCfO1ig-eSCDwptvZ_4gLi5XcE8SG-t4JFhmGuhvLwbv4hyCvnulpZdT9HhlPuUZxPHexlUYeTZX7HL9uoG2IYqNqodckqzNy77JlJ-P_mK0]--></g></svg>