<?xml version="1.0" encoding="us-ascii" standalone="no"?><svg xmlns="http://www.w3.org/2000/svg" xmlns:xlink="http://www.w3.org/1999/xlink" contentStyleType="text/css" height="724px" preserveAspectRatio="none" style="width:712px;height:724px;background:#FFFFFF;" version="1.1" viewBox="0 0 712 724" width="712px" zoomAndPan="magnify"><defs/><g><text fill="#000000" font-family="Helvetica" font-size="14" font-weight="bold" lengthAdjust="spacing" textLength="332" x="183.375" y="24.5332">Escenario 1 - Publicacion y venta de un articulo</text><g id="elem_Vendedor"><rect fill="#FFFFFF" height="37.6094" style="stroke:#000000;stroke-width:0.5;" width="76" x="182.25" y="479.6094"/><text fill="#000000" font-family="Helvetica" font-size="14" lengthAdjust="spacing" textLength="62" x="189.25" y="496.1426">Vendedor</text><line style="stroke:#000000;stroke-width:0.5;" x1="183.25" x2="257.25" y1="501.2188" y2="501.2188"/></g><g id="elem_Comprador"><rect fill="#FFFFFF" height="37.6094" style="stroke:#000000;stroke-width:0.5;" width="85" x="74.75" y="265.1094"/><text fill="#000000" font-family="Helvetica" font-size="14" lengthAdjust="spacing" textLength="71" x="81.75" y="281.6426">Comprador</text><line style="stroke:#000000;stroke-width:0.5;" x1="75.75" x2="158.75" y1="286.7188" y2="286.7188"/></g><g id="elem_Anuncio"><rect fill="#FFFFFF" height="37.6094" style="stroke:#000000;stroke-width:0.5;" width="65" x="96.75" y="580.1094"/><text fill="#000000" font-family="Helvetica" font-size="14" lengthAdjust="spacing" textLength="51" x="103.75" y="596.6426">Anuncio</text><line style="stroke:#000000;stroke-width:0.5;" x1="97.75" x2="160.75" y1="601.7188" y2="601.7188"/></g><g id="elem_Categoria"><rect fill="#FFFFFF" height="37.6094" style="stroke:#000000;stroke-width:0.5;" width="76" x="293.25" y="479.6094"/><text fill="#000000" font-family="Helvetica" font-size="14" lengthAdjust="spacing" textLength="62" x="300.25" y="496.1426">Categoria</text><line style="stroke:#000000;stroke-width:0.5;" x1="294.25" x2="368.25" y1="501.2188" y2="501.2188"/></g><g id="elem_Foto1"><rect fill="#FFFFFF" height="37.6094" style="stroke:#000000;stroke-width:0.5;" width="51" x="17.75" y="680.6094"/><text fill="#000000" font-family="Helvetica" font-size="14" lengthAdjust="spacing" textLength="37" x="24.75" y="697.1426">Foto1</text><line style="stroke:#000000;stroke-width:0.5;" x1="18.75" x2="67.75" y1="702.2188" y2="702.2188"/></g><g id="elem_Foto2"><rect fill="#FFFFFF" height="37.6094" style="stroke:#000000;stroke-width:0.5;" width="51" x="103.75" y="680.6094"/><text fill="#000000" font-family="Helvetica" font-size="14" lengthAdjust="spacing" textLength="37" x="110.75" y="697.1426">Foto2</text><line style="stroke:#000000;stroke-width:0.5;" x1="104.75" x2="153.75" y1="702.2188" y2="702.2188"/></g><g id="elem_Foto3"><rect fill="#FFFFFF" height="37.6094" style="stroke:#000000;stroke-width:0.5;" width="51" x="189.75" y="680.6094"/><text fill="#000000" font-family="Helvetica" font-size="14" lengthAdjust="spacing" textLength="37" x="196.75" y="697.1426">Foto3</text><line style="stroke:#000000;stroke-width:0.5;" x1="190.75" x2="239.75" y1="702.2188" y2="702.2188"/></g><g id="elem_Chat1"><rect fill="#FFFFFF" height="37.6094" style="stroke:#000000;stroke-width:0.5;" width="52" x="111.25" y="381.6094"/><text fill="#000000" font-family="Helvetica" font-size="14" lengthAdjust="spacing" textLength="38" x="118.25" y="398.1426">Chat1</text><line style="stroke:#000000;stroke-width:0.5;" x1="112.25" x2="162.25" y1="403.2188" y2="403.2188"/></g><g id="elem_Transaccion"><rect fill="#FFFFFF" height="37.6094" style="stroke:#000000;stroke-width:0.5;" width="92" x="71.25" y="146.1094"/><text fill="#000000" font-family="Helvetica" font-size="14" lengthAdjust="spacing" textLength="78" x="78.25" y="162.6426">Transaccion</text><line style="stroke:#000000;stroke-width:0.5;" x1="72.25" x2="162.25" y1="167.7188" y2="167.7188"/></g><g id="elem_ValoracionC"><rect fill="#FFFFFF" height="37.6094" style="stroke:#000000;stroke-width:0.5;" width="91" x="183.75" y="45.6094"/><text fill="#000000" font-family="Helvetica" font-size="14" lengthAdjust="spacing" textLength="77" x="190.75" y="62.1426">ValoracionC</text><line style="stroke:#000000;stroke-width:0.5;" x1="184.75" x2="273.75" y1="67.2188" y2="67.2188"/></g><g id="elem_ValoracionV"><rect fill="#FFFFFF" height="37.6094" style="stroke:#000000;stroke-width:0.5;" width="90" x="58.25" y="45.6094"/><text fill="#000000" font-family="Helvetica" font-size="14" lengthAdjust="spacing" textLength="76" x="65.25" y="62.1426">ValoracionV</text><line style="stroke:#000000;stroke-width:0.5;" x1="59.25" x2="147.25" y1="67.2188" y2="67.2188"/></g><g id="elem_GMN18"><path d="M197.25,577.6094 L197.25,604.6094 L162.07,608.6094 L197.25,612.6094 L197.25,620.3125 A0,0 0 0 0 197.25,620.3125 L367.25,620.3125 A0,0 0 0 0 367.25,620.3125 L367.25,587.6094 L357.25,577.6094 L197.25,577.6094 A0,0 0 0 0 197.25,577.6094 " fill="#FEFFDD" style="stroke:#181818;stroke-width:0.5;"/><path d="M357.25,577.6094 L357.25,587.6094 L367.25,587.6094 L357.25,577.6094 " fill="#FEFFDD" style="stroke:#181818;stroke-width:0.5;"/><text fill="#000000" font-family="Helvetica" font-size="13" lengthAdjust="spacing" textLength="149" x="203.25" y="596.1045">estado inicial = "borrador"</text><text fill="#000000" font-family="Helvetica" font-size="13" lengthAdjust="spacing" textLength="122" x="203.25" y="612.4561">al publicar -&gt; "activo"</text></g><g id="elem_GMN28"><path d="M373.75,143.6094 L373.75,186.3125 L608.75,186.3125 L608.75,153.6094 L598.75,143.6094 L373.75,143.6094 " fill="#FEFFDD" style="stroke:#181818;stroke-width:0.5;"/><path d="M598.75,143.6094 L598.75,153.6094 L608.75,153.6094 L598.75,143.6094 " fill="#FEFFDD" style="stroke:#181818;stroke-width:1.0;"/><text fill="#000000" font-family="Helvetica" font-size="13" lengthAdjust="spacing" textLength="214" x="379.75" y="162.1045">estado = "pendiente" -&gt; "confirmada"</text><text fill="#000000" font-family="Helvetica" font-size="13" lengthAdjust="spacing" textLength="122" x="379.75" y="178.4561">confirmacion bilateral</text></g><g id="elem_GMN37"><path d="M340.75,246.6094 L340.75,322.0156 L705.75,322.0156 L705.75,256.6094 L695.75,246.6094 L340.75,246.6094 " fill="#FEFFDD" style="stroke:#181818;stroke-width:0.5;"/><path d="M695.75,246.6094 L695.75,256.6094 L705.75,256.6094 L695.75,246.6094 " fill="#FEFFDD" style="stroke:#181818;stroke-width:1.0;"/><text fill="#000000" font-family="Helvetica" font-size="13" lengthAdjust="spacing" textLength="86" x="346.75" y="265.1045">Postcondicion:</text><text fill="#000000" font-family="Helvetica" font-size="13" lengthAdjust="spacing" textLength="167" x="346.75" y="281.4561">- Anuncio.estado = "vendido"</text><text fill="#000000" font-family="Helvetica" font-size="13" lengthAdjust="spacing" textLength="214" x="346.75" y="297.8076">- Transaccion.estado = "completada"</text><text fill="#000000" font-family="Helvetica" font-size="13" lengthAdjust="spacing" textLength="344" x="346.75" y="314.1592">- Se actualiza valoracionMedia y contador de transacciones</text></g><!--link Vendedor to Anuncio--><g id="link_Vendedor_Anuncio"><path codeLine="24" d="M186,518.0794 C186,547.4294 186,599.6094 186,599.6094 C186,599.6094 174.55,599.6094 161.93,599.6094 " fill="none" id="Vendedor-Anuncio" style="stroke:#000000;stroke-width:1.0;"/><text fill="#000000" font-family="Helvetica" font-size="13" lengthAdjust="spacing" textLength="25" x="160" y="567.3745">crea</text></g><!--link Categoria to Anuncio--><g id="link_Categoria_Anuncio"><path codeLine="25" d="M330.25,517.6894 C330.25,531.4494 330.25,547.6094 330.25,547.6094 C330.25,547.6094 136.5,547.6094 136.5,547.6094 C136.5,547.6094 136.5,565.2894 136.5,579.9294 " fill="none" id="Categoria-Anuncio" style="stroke:#000000;stroke-width:1.0;"/><text fill="#000000" font-family="Helvetica" font-size="13" lengthAdjust="spacing" textLength="47" x="184.17" y="544.1045">clasifica</text></g><!--link Anuncio to Foto1--><g id="link_Anuncio_Foto1"><path codeLine="26" d="M100.25,618.4894 C100.25,647.6894 100.25,699.6094 100.25,699.6094 C100.25,699.6094 84.16,699.6094 69.08,699.6094 " fill="none" id="Anuncio-Foto1" style="stroke:#000000;stroke-width:1.0;"/></g><!--link Anuncio to Foto2--><g id="link_Anuncio_Foto2"><path codeLine="27" d="M129.25,618.4894 C129.25,636.2794 129.25,662.5094 129.25,680.2894 " fill="none" id="Anuncio-Foto2" style="stroke:#000000;stroke-width:1.0;"/></g><!--link Anuncio to Foto3--><g id="link_Anuncio_Foto3"><path codeLine="28" d="M158.25,618.4894 C158.25,647.6894 158.25,699.6094 158.25,699.6094 C158.25,699.6094 174.34,699.6094 189.42,699.6094 " fill="none" id="Anuncio-Foto3" style="stroke:#000000;stroke-width:1.0;"/></g><!--link Comprador to Anuncio--><g id="link_Comprador_Anuncio"><path codeLine="36" d="M104,303.3394 C104,359.5794 104,517.3094 104,573.7294 " fill="none" id="Comprador-to-Anuncio" style="stroke:#000000;stroke-width:1.0;stroke-dasharray:7.0,7.0;"/><polygon fill="#000000" points="104,579.7294,108,570.7294,104,574.7294,100,570.7294,104,579.7294" style="stroke:#000000;stroke-width:1.0;"/><text fill="#000000" font-family="Helvetica" font-size="13" lengthAdjust="spacing" textLength="96" x="7" y="438.0345">busca / visualiza</text></g><!--link Comprador to Chat1--><g id="link_Comprador_Chat1"><path codeLine="37" d="M135.5,303.3494 C135.5,324.9294 135.5,359.7494 135.5,381.3394 " fill="none" id="Comprador-Chat1" style="stroke:#000000;stroke-width:1.0;"/><text fill="#000000" font-family="Helvetica" font-size="13" lengthAdjust="spacing" textLength="59" x="75.5" y="338.8445">inicia chat</text></g><!--link Chat1 to Vendedor--><g id="link_Chat1_Vendedor"><path codeLine="38" d="M149.12,419.6694 C149.12,446.6194 149.12,492.6094 149.12,492.6094 C149.12,492.6094 165.28,492.6094 182.19,492.6094 " fill="none" id="Chat1-Vendedor" style="stroke:#000000;stroke-width:1.0;"/><text fill="#000000" font-family="Helvetica" font-size="13" lengthAdjust="spacing" textLength="56" x="92.12" y="469.1645">comunica</text></g><!--link Chat1 to Anuncio--><g id="link_Chat1_Anuncio"><path codeLine="39" d="M123.88,419.6394 C123.88,457.4894 123.88,541.8094 123.88,579.8394 " fill="none" id="Chat1-Anuncio" style="stroke:#000000;stroke-width:1.0;"/><text fill="#000000" font-family="Helvetica" font-size="13" lengthAdjust="spacing" textLength="56" x="66.88" y="496.2345">referencia</text></g><!--link Transaccion to Anuncio--><g id="link_Transaccion_Anuncio"><path codeLine="42" d="M163.34,155.6094 C168.95,155.6094 172.75,155.6094 172.75,155.6094 C172.75,155.6094 172.75,589.6094 172.75,589.6094 C172.75,589.6094 168.07,589.6094 161.77,589.6094 " fill="none" id="Transaccion-Anuncio" style="stroke:#000000;stroke-width:1.0;"/></g><!--link Transaccion to Vendedor--><g id="link_Transaccion_Vendedor"><path codeLine="43" d="M163.3,174.6094 C183.36,174.6094 202.38,174.6094 202.38,174.6094 C202.38,174.6094 202.38,409.5594 202.38,479.3094 " fill="none" id="Transaccion-Vendedor" style="stroke:#000000;stroke-width:1.0;"/><text fill="#000000" font-family="Helvetica" font-size="13" lengthAdjust="spacing" textLength="51" x="150.38" y="321.9145">vendedor</text></g><!--link Transaccion to Comprador--><g id="link_Transaccion_Comprador"><path codeLine="44" d="M117.25,184.2294 C117.25,206.4394 117.25,242.8494 117.25,265.0394 " fill="none" id="Transaccion-Comprador" style="stroke:#000000;stroke-width:1.0;"/><text fill="#000000" font-family="Helvetica" font-size="13" lengthAdjust="spacing" textLength="61" x="55.25" y="221.1245">comprador</text></g><!--link Transaccion to GMN28--><g id="link_Transaccion_GMN28"><path d="M163.48,165.6094 C215.57,165.6094 302.23,165.6094 373.37,165.6094 " fill="none" id="Transaccion-GMN28" style="stroke:#000000;stroke-width:1.0;stroke-dasharray:7.0,7.0;"/></g><!--link ValoracionC to Comprador--><g id="link_ValoracionC_Comprador"><path codeLine="52" d="M221,83.7494 C221,137.2694 221,284.6094 221,284.6094 C221,284.6094 188.63,284.6094 160.05,284.6094 " fill="none" id="ValoracionC-Comprador" style="stroke:#000000;stroke-width:1.0;"/><text fill="#000000" font-family="Helvetica" font-size="13" lengthAdjust="spacing" textLength="32" x="188" y="211.1545">emite</text></g><!--link ValoracionC to Vendedor--><g id="link_ValoracionC_Vendedor"><path codeLine="53" d="M239.62,83.8194 C239.62,155.5094 239.62,406.9894 239.62,479.1294 " fill="none" id="ValoracionC-Vendedor" style="stroke:#000000;stroke-width:1.0;"/><text fill="#000000" font-family="Helvetica" font-size="13" lengthAdjust="spacing" textLength="35" x="203.63" y="277.9645">recibe</text></g><!--link ValoracionC to Transaccion--><g id="link_ValoracionC_Transaccion"><path codeLine="54" d="M183.54,64.6094 C168.59,64.6094 155.75,64.6094 155.75,64.6094 C155.75,64.6094 155.75,116.5294 155.75,145.7294 " fill="none" id="ValoracionC-Transaccion" style="stroke:#000000;stroke-width:1.0;"/></g><!--link ValoracionV to Vendedor--><g id="link_ValoracionV_Vendedor"><path codeLine="56" d="M61.75,83.8394 C61.75,168.7194 61.75,505.6094 61.75,505.6094 C61.75,505.6094 134.97,505.6094 181.88,505.6094 " fill="none" id="ValoracionV-Vendedor" style="stroke:#000000;stroke-width:1.0;"/><text fill="#000000" font-family="Helvetica" font-size="13" lengthAdjust="spacing" textLength="32" x="28.75" y="351.2845">emite</text></g><!--link ValoracionV to Comprador--><g id="link_ValoracionV_Comprador"><path codeLine="57" d="M65.25,83.7494 C65.25,137.2694 65.25,284.6094 65.25,284.6094 C65.25,284.6094 68.92,284.6094 74.31,284.6094 " fill="none" id="ValoracionV-Comprador" style="stroke:#000000;stroke-width:1.0;"/><text fill="#000000" font-family="Helvetica" font-size="13" lengthAdjust="spacing" textLength="35" x="29.25" y="185.2045">recibe</text></g><!--link ValoracionV to Transaccion--><g id="link_ValoracionV_Transaccion"><path codeLine="58" d="M109.75,83.9894 C109.75,101.7794 109.75,128.0094 109.75,145.7894 " fill="none" id="ValoracionV-Transaccion" style="stroke:#000000;stroke-width:1.0;"/></g><!--link GMN28 to GMN37--><g id="link_GMN28_GMN37"><path d="M491.25,186.6594 C491.25,203.2694 491.25,226.6494 491.25,246.3494 " fill="none" id="GMN28-GMN37" style="stroke:#000000;stroke-width:1.0;stroke-dasharray:7.0,7.0;"/></g><!--SRC=[VLF1RjH03BtFLrXxuRI5jhTAL6fNL700AegMipFnxffEnc7YRDL-FKxIPAS9uXRRR-pdznnb3GIV6ayH4mkSmnhksoAmHyyIuHcE51MX96WZO5BsRH3NF7AiCM45Fc3JtAWcBbgbBrxY0xyGVCWWWIFfSqqWIG_vsv9ss0QzawZVi2BuJE58DW4pZ1I_oUkjf9BIHe8ak0te7vS8I-wJjB4SKByEh9IXRbAIftytU3XWAKySzx33q91px-2xzLHfe4uSFTSOg7737DXIBAcKDCORgUg4MU8cjlP6fZegxIKnZeaxKJdFWuiyk9pU7L0dsC-4iK7VMJBnGDkbDscpJ6sx9NvGw0DgEllgawjkt07Mwv4kN85FX6wYEwkPpRphh1bpLXuscIKkvebBvw8eGUBzGK5saq3KgEa67Dap1lW8gq9IB-NAMVnAs4XUmmgzyb5MpeX3rssvNz4sVregqKxMIzN6STV97pWxkyusChn7U0z7RbeC_88PqfZtyXjiO0VUGZVah3ZfTpNDEXLF8nBjA945kAIhcQEPkrc3UJeRUXnlS0OvRT0JUxtBcVpvBRrQODBNrfBjLwTLhxVznpjE5PQuSkDtFwNWO1UICFp7YkDqX_RRP7SwfqXLzu_E0DcQYJmN2q3EFwjjPu_dpRVpwOlksqNtNhX2LALozzAeAL5oLxfoaqrd9mqxMxYqAttJ9WDqdWJINjKrF13OMG_7bsdsbKeUhZXgJ_NjjPYae_9_0G00]--></g></svg>